<svg width="204" height="60" viewBox="0 0 204 60" fill="none" xmlns="http://www.w3.org/2000/svg">
<path fill-rule="evenodd" clip-rule="evenodd" d="M0 16.8486V44.7968L8.06761 49.4578V29.471L16.1046 34.1275V54.1056L24.1722 58.7666V30.8227L0 16.8486Z" fill="#2AC688"/>
<path fill-rule="evenodd" clip-rule="evenodd" d="M18.3221 14.2945L26.4028 9.54575L36.4436 15.44L28.3672 20.1799L18.3221 14.2989V14.2945ZM26.4116 0L2.04688 14.2989L28.3191 29.752L28.3278 60L36.2992 55.3434V24.7443L44.3493 20.0176V50.5903L52.4344 45.8152V15.2732L26.4116 0Z" fill="#2AC688"/>
<path fill-rule="evenodd" clip-rule="evenodd" d="M87.9301 36.019L87.777 36.0454L72.7706 12.6045H65.6523V47.3949H72.7706V23.9541L72.9237 23.9321L87.9301 47.3949H95.0527V12.6045H87.9301V36.019Z" fill="white"/>
<path fill-rule="evenodd" clip-rule="evenodd" d="M179.492 32.7274C179.492 25.8194 174.05 20.1709 167.395 20.1709H166.708C160.058 20.1709 154.611 25.8237 154.611 32.7274V34.8384C154.611 41.7465 160.054 47.3949 166.708 47.3949H167.395C174.05 47.3949 179.492 41.7465 179.492 34.8384V32.7274ZM167.286 39.8417C164.503 39.9558 162.141 37.6868 162.031 34.7989L161.97 33.1795C161.861 30.2916 164.048 27.8382 166.826 27.7241C169.609 27.61 171.972 29.879 172.081 32.7669L172.142 34.3864C172.252 37.2743 170.064 39.7276 167.286 39.8417Z" fill="white"/>
<path fill-rule="evenodd" clip-rule="evenodd" d="M115.374 21.1052C113.965 20.504 112.43 20.166 110.815 20.166H110.128C103.474 20.166 98.0312 25.8145 98.0312 32.7225V34.8336C98.0312 41.7416 103.474 47.3901 110.128 47.3901H110.815C112.425 47.3901 113.965 47.0521 115.374 46.4508V47.3901H122.912V20.166H115.374V21.1052ZM110.701 39.8325C107.923 39.9466 105.565 37.6775 105.456 34.7984L105.394 33.179C105.285 30.2955 107.468 27.8465 110.246 27.7324C112.718 27.6315 114.858 29.4221 115.374 31.8491V35.9834C114.801 38.1252 112.946 39.7447 110.701 39.8325Z" fill="white"/>
<path fill-rule="evenodd" clip-rule="evenodd" d="M140.584 20.1704H139.898C138.226 20.1704 136.629 20.5303 135.177 21.1754V12.6084H127.639V47.3944H135.177V46.3894C136.629 47.0346 138.226 47.3944 139.898 47.3944H140.584C147.239 47.3944 152.682 41.746 152.682 34.8379V32.7269C152.682 25.8188 147.239 20.1704 140.584 20.1704ZM145.261 34.794C145.152 37.6775 142.79 39.9422 140.016 39.8281C137.434 39.7227 135.369 37.5985 135.177 34.9872V34.0216L135.225 32.7664C135.334 29.8829 137.697 27.6183 140.471 27.7324C143.249 27.8465 145.432 30.2955 145.323 33.1789L145.261 34.7984V34.794Z" fill="white"/>
<path fill-rule="evenodd" clip-rule="evenodd" d="M203.226 20.1709H195.824L190.788 28.0094L185.757 20.1709H178.35L187.087 33.7807L178.35 47.3949H185.757L190.788 39.5521L195.824 47.3949H203.226L194.494 33.7807L203.226 20.1709Z" fill="white"/>
</svg>
