<svg width="46" height="42" viewBox="0 0 46 42" fill="none" xmlns="http://www.w3.org/2000/svg">
<path d="M43.125 18.9463V8.625C43.125 8.24375 42.9735 7.87812 42.704 7.60853C42.4344 7.33895 42.0687 7.1875 41.6875 7.1875H40.25V2.875C40.25 2.1125 39.9471 1.38123 39.4079 0.842068C38.8688 0.302901 38.1375 0 37.375 0H2.875C2.1125 0 1.38124 0.302901 0.842068 0.842068C0.302901 1.38123 0 2.1125 0 2.875L0 40.25C0 40.6312 0.15145 40.9969 0.421034 41.2665C0.690618 41.536 1.05625 41.6875 1.4375 41.6875H41.6875C42.0687 41.6875 42.4344 41.536 42.704 41.2665C42.9735 40.9969 43.125 40.6312 43.125 40.25V29.9287C43.9639 29.6322 44.6904 29.0834 45.2052 28.3577C45.7199 27.6319 45.9975 26.7647 46 25.875V23C45.9975 22.1103 45.7199 21.2431 45.2052 20.5173C44.6904 19.7916 43.9639 19.2428 43.125 18.9463ZM2.875 2.875H37.375V7.1875H2.875V2.875ZM40.25 38.8125H2.875V10.0625H40.25V18.6875H30.1875C29.0438 18.6875 27.9469 19.1419 27.1381 19.9506C26.3294 20.7594 25.875 21.8563 25.875 23V25.875C25.875 27.0187 26.3294 28.1156 27.1381 28.9244C27.9469 29.7331 29.0438 30.1875 30.1875 30.1875H40.25V38.8125ZM43.125 25.875C43.125 26.2562 42.9735 26.6219 42.704 26.8915C42.4344 27.1611 42.0687 27.3125 41.6875 27.3125H30.1875C29.8063 27.3125 29.4406 27.1611 29.171 26.8915C28.9014 26.6219 28.75 26.2562 28.75 25.875V23C28.75 22.6188 28.9014 22.2531 29.171 21.9835C29.4406 21.7139 29.8063 21.5625 30.1875 21.5625H41.6875C42.0687 21.5625 42.4344 21.7139 42.704 21.9835C42.9735 22.2531 43.125 22.6188 43.125 23V25.875Z" fill="#01E789"/>
<path d="M33.0625 23.001H30.1875V25.876H33.0625V23.001Z" fill="#01E789"/>
</svg>
