<?xml version="1.0" encoding="UTF-8"?><svg id="_图层_1" xmlns="http://www.w3.org/2000/svg" viewBox="0 0 633 126.6"><path d="M38.7,53.2l24.6-24.6,24.6,24.6,14.3-14.3L63.3,0,24.4,38.9l14.3,14.3Z"/><path d="M0,63.3l14.3-14.3,14.3,14.3-14.3,14.3L0,63.3Z"/><path d="M38.7,73.4l24.6,24.6,24.6-24.6,14.3,14.3h0l-38.9,38.9-38.9-38.9h0l14.3-14.3Z"/><path d="M98,63.3l14.3-14.3,14.3,14.3-14.3,14.3-14.3-14.3Z"/><path d="M77.8,63.3l-14.5-14.5-10.7,10.7-1.2,1.2-2.5,2.5h0l14.5,14.5,14.4-14.4h0Z"/><path d="M148.95,30.7h31.1c7.7,0,13.6,2,17.5,6,3,3,4.7,7.1,4.6,11.3v.2c0,1.7-.2,3.4-.7,5.1-.4,1.4-1.1,2.8-1.9,4-.8,1.2-1.7,2.2-2.8,3.1-1,.9-2.2,1.7-3.4,2.3,3.5,1.2,6.7,3.3,9.2,6,2.2,2.5,3.3,6,3.3,10.5v.2c.1,2.8-.5,5.6-1.8,8.1-1.2,2.3-2.9,4.3-5.1,5.8-2.4,1.6-5.1,2.8-7.9,3.4-3.4.8-6.8,1.2-10.3,1.2h-31.9l.1-67.2ZM176.95,57.8c2.7.1,5.4-.4,7.8-1.7,1.9-1.1,3-3.2,2.9-5.4v-.2c.1-2-.8-4-2.5-5.1-1.7-1.2-4.1-1.8-7.2-1.8h-14.6v14.2h13.6ZM180.85,84.9c2.7.2,5.4-.5,7.7-1.8,1.9-1.2,2.9-3.3,2.8-5.5v-.2c.1-2.1-.9-4.1-2.6-5.3-1.7-1.3-4.5-2-8.3-2h-17.1v14.8h17.5Z"/><path d="M224.45,30.7h14.8v67.1h-14.8V30.7Z"/><path d="M261.55,30.7h13.6l31.5,41.3V30.7h14.6v67.1h-12.6l-32.5-42.7v42.7h-14.6V30.7Z"/><path d="M365.95,30.2h13.6l28.8,67.6h-15.4l-6.1-15.1h-28.4l-6.1,15.1h-15.1l28.7-67.6ZM381.45,69.7l-8.9-21.8-8.9,21.8h17.8Z"/><path d="M424.25,30.7h13.6l31.5,41.3V30.7h14.6v67.1h-12.6l-32.5-42.7v42.7h-14.6V30.7Z"/><path d="M537.15,99c-4.7,0-9.4-.9-13.7-2.7-8.3-3.4-14.8-10-18.1-18.3-1.7-4.3-2.6-8.9-2.6-13.5v-.2c-.1-9.1,3.4-17.9,9.8-24.5,3.1-3.2,6.9-5.8,11-7.5,4.5-1.9,9.3-2.8,14.2-2.7,2.9,0,5.8.2,8.6.8,2.4.5,4.8,1.2,7.1,2.1,2.1.9,4,2,5.8,3.3s3.5,2.7,5,4.2l-9.4,10.8c-2.4-2.2-5.1-4.1-8-5.6-2.9-1.4-6-2.1-9.2-2-5.3-.1-10.4,2.2-14,6.1-1.7,2-3.1,4.2-4,6.7-1,2.6-1.4,5.3-1.4,8.1v.2c0,2.8.5,5.5,1.4,8.1.9,2.5,2.3,4.7,4,6.7,3.5,4,8.6,6.3,14,6.2,3.4.1,6.7-.6,9.7-2.1,2.9-1.6,5.5-3.5,7.9-5.8l9.3,9.6c-1.7,1.8-3.5,3.5-5.4,5s-3.9,2.8-6.1,3.8c-2.3,1.1-4.7,1.9-7.2,2.4-2.9.5-5.8.8-8.7.8Z"/><path d="M582.05,30.7h50.5v13.1h-36v13.6h31.7v13.1h-31.7v14.1h36.5v13.1h-51V30.7Z"/></svg>