<?xml version="1.0" encoding="UTF-8"?><svg id="_图层_1" xmlns="http://www.w3.org/2000/svg" viewBox="0 0 621.45 126.6"><path d="M86.7,49.1v-8.19c0-8.18-6.63-14.8-14.8-14.8H0v75.6h71.9c8.18,0,14.8-6.63,14.8-14.8v-10.9c0-5.97-3.55-11.11-8.64-13.45,5.09-2.34,8.64-7.47,8.64-13.45ZM73.1,83.57c0,4.04-3.27,7.31-7.31,7.31H15.82c-1.22,0-2.21-.99-2.21-2.21v-18.53c0-1.22.99-2.21,2.21-2.21h49.97c4.04,0,7.31,3.27,7.31,7.31v8.33ZM73.1,50.39c0,4.04-3.27,7.31-7.31,7.31H15.82c-1.22,0-2.21-.99-2.21-2.21v-16.16c0-1.22.99-2.21,2.21-2.21h49.97c4.04,0,7.31,3.27,7.31,7.31v5.96Z"/><rect x="103.06" y="26.1" width="16.22" height="75.6"/><rect x="487.05" y="26.1" width="16.22" height="75.6"/><polygon points="226.14 26.15 187.67 26.15 187.67 26.1 171.44 26.1 171.44 26.15 132.97 26.15 132.97 37.91 171.44 37.91 171.44 101.7 187.67 101.7 187.67 37.91 226.14 37.91 226.14 26.15"/><polygon points="342.13 26.15 297.26 87.67 252.39 26.15 237.16 26.15 237.16 101.7 252.39 101.7 252.39 49.9 290.31 101.7 297.26 101.7 304.21 101.7 342.13 49.9 342.13 101.7 357.36 101.7 357.36 26.15 342.13 26.15"/><polygon points="364.52 101.7 416.39 26.15 427.08 26.15 478.24 101.7 460.77 101.7 421.38 42.08 381.81 101.7 364.52 101.7"/><polygon points="518.66 101.7 518.66 26.1 532.18 26.1 608.22 81.45 608.22 26.15 621.45 26.15 621.45 101.7 613.16 101.7 531.89 42.98 531.89 101.7 518.66 101.7"/></svg>