<?xml version="1.0" encoding="UTF-8"?><svg id="_图层_1" xmlns="http://www.w3.org/2000/svg" viewBox="0 0 459.54 126.6"><path d="M76.92,14.35l-42.39,24.47v48.95l42.39,24.47,42.39-24.47v-48.95l-42.39-24.47ZM101.35,77.4l-24.42,14.1-24.42-14.1v-28.2l24.42-14.1,24.42,14.1v28.2Z"/><path d="M165.82,87.82c-4.21,0-7.98-.96-11.3-2.9-3.32-1.93-5.95-4.73-7.87-8.38s-2.88-8.06-2.88-13.21.97-9.62,2.9-13.29c1.93-3.67,4.57-6.46,7.9-8.38,3.33-1.92,7.08-2.88,11.25-2.88,2.71,0,5.24.39,7.57,1.16,2.33.77,4.4,1.88,6.22,3.35,1.82,1.46,3.29,3.25,4.44,5.37,1.14,2.11,1.88,4.52,2.23,7.22h-9.46c-.22-1.37-.63-2.59-1.25-3.67-.62-1.08-1.41-2-2.35-2.76-.95-.76-2.03-1.34-3.23-1.73-1.21-.4-2.53-.59-3.96-.59-2.52,0-4.74.63-6.67,1.89-1.92,1.26-3.43,3.1-4.5,5.51-1.08,2.41-1.62,5.36-1.62,8.81s.54,6.46,1.63,8.87c1.09,2.4,2.59,4.22,4.5,5.45,1.92,1.23,4.12,1.84,6.62,1.84,1.39,0,2.68-.19,3.88-.56,1.19-.37,2.27-.92,3.22-1.64.95-.71,1.75-1.59,2.39-2.63.64-1.04,1.09-2.23,1.35-3.57h9.46c-.28,2.24-.94,4.37-2,6.38-1.06,2-2.47,3.79-4.23,5.33-1.76,1.55-3.84,2.77-6.22,3.67-2.38.9-5.05,1.35-8,1.35h0s0,0,0,0Z"/><path d="M200.5,66.33v20.84h-9.17v-47.76h8.91v18.17h.45c.83-2.07,2.14-3.71,3.91-4.91,1.77-1.19,4.03-1.8,6.76-1.8,2.48,0,4.65.53,6.5,1.6,1.86,1.07,3.31,2.61,4.33,4.62,1.03,2,1.54,4.44,1.54,7.28v22.79h-9.2v-21.25c0-2.31-.59-4.11-1.76-5.4-1.17-1.29-2.83-1.94-4.97-1.94-1.43,0-2.69.31-3.78.93-1.09.62-1.95,1.5-2.58,2.64-.63,1.15-.94,2.53-.94,4.19h0s0,0,0,0Z"/><path d="M240.03,87.87c-2.29,0-4.33-.41-6.14-1.22-1.8-.81-3.23-2.02-4.26-3.61s-1.55-3.56-1.55-5.91c0-2,.37-3.68,1.11-5,.74-1.33,1.74-2.4,3.02-3.22,1.27-.82,2.71-1.44,4.33-1.86,1.61-.42,3.31-.71,5.08-.88,2.09-.22,3.78-.41,5.07-.59s2.22-.47,2.8-.87c.59-.4.88-.98.88-1.75v-.16c0-1.61-.49-2.85-1.47-3.74-.98-.88-2.38-1.33-4.2-1.33-1.92,0-3.45.42-4.59,1.27-1.13.84-1.89,1.86-2.27,3.06l-8.53-.93c.53-2.18,1.5-4.03,2.9-5.56,1.4-1.53,3.16-2.69,5.27-3.5,2.11-.8,4.52-1.21,7.21-1.21,1.86,0,3.67.22,5.44.66,1.76.43,3.35,1.13,4.78,2.09,1.42.95,2.56,2.21,3.39,3.77.84,1.56,1.27,3.46,1.27,5.71v24.07h-8.78v-4.97h-.25c-.56,1.07-1.3,2.03-2.24,2.89-.94.86-2.09,1.53-3.46,2.04-1.37.51-2.96.76-4.78.76h-.01,0ZM242.53,81.33c1.58,0,2.96-.31,4.14-.94s2.09-1.47,2.76-2.53c.66-1.06.99-2.23.99-3.51v-4.01c-.3.22-.74.41-1.31.58-.58.17-1.23.33-1.96.47-.72.14-1.45.26-2.15.37-.7.11-1.33.19-1.89.25-1.22.17-2.29.45-3.22.83-.93.39-1.66.91-2.2,1.57-.53.66-.8,1.5-.8,2.5,0,1.45.53,2.55,1.59,3.3,1.06.75,2.41,1.12,4.05,1.12h0Z"/><path d="M265.58,87.17v-35.84h9.17v35.84h-9.17Z"/><path d="M289.94,66.33v20.84h-9.17v-35.84h9.01v6.25h.39c.81-2.05,2.1-3.68,3.86-4.89,1.76-1.21,3.98-1.81,6.65-1.81,2.48,0,4.64.53,6.49,1.6,1.85,1.07,3.28,2.61,4.3,4.63,1.01,2.02,1.52,4.44,1.52,7.26v22.79h-9.17v-21.25c0-2.29-.59-4.08-1.78-5.38-1.18-1.3-2.82-1.96-4.89-1.96-1.41,0-2.66.31-3.74.93-1.08.62-1.93,1.5-2.55,2.64-.62,1.15-.93,2.53-.93,4.19h0s0,0,0,0Z"/><path d="M328.18,37.05v50.12h-9.17v-50.12h9.17Z"/><path d="M334.21,87.17v-35.84h9.17v35.84h-9.17Z"/><path d="M358.57,66.33v20.84h-9.17v-35.84h9.01v6.25h.39c.81-2.05,2.1-3.68,3.86-4.89,1.76-1.21,3.98-1.81,6.65-1.81,2.48,0,4.64.53,6.49,1.6,1.85,1.07,3.28,2.61,4.3,4.63,1.01,2.02,1.52,4.44,1.52,7.26v22.79h-9.17v-21.25c0-2.29-.59-4.08-1.78-5.38-1.18-1.3-2.81-1.96-4.89-1.96-1.41,0-2.66.31-3.74.93-1.08.62-1.93,1.5-2.55,2.64-.62,1.15-.93,2.53-.93,4.19h0Z"/><path d="M410.05,87.17h10.87l-14.31-20.32,13.57-15.52h-10.64l-12.15,14.01h-.57v-25.94h-9.17v47.77h9.17v-11.7l2.87-3.19,10.36,14.88h0Z"/><path d="M274.82,37.05h-9.17v9.17h9.17v-9.17Z"/><path d="M343.45,37.05h-9.17v9.17h9.17v-9.17Z"/></svg>