<?xml version="1.0" encoding="UTF-8"?><svg id="_图层_1" xmlns="http://www.w3.org/2000/svg" viewBox="0 0 416.61 126.6"><g id="_页面-1"><g id="Medium"><g id="_编组-9"><g id="DePINX"><path id="_路径" d="M239.77,74.96c-.69-.69-1.03-1.67-1.03-2.95V22.37h4.21v49.79h29.11v3.83h-29.42c-1.23,0-2.18-.35-2.87-1.03Z"/><path id="_形状" d="M310.76,60.37h-24.13l-5.9,15.63h-4.37l20.45-53.62h1.99c1.23,0,2.14.79,2.76,2.38l19.38,51.25h-4.37l-5.82-15.63h0ZM287.93,56.77h21.53l-10.73-28.73h-.08l-10.73,28.73h0Z"/><path id="_形状-2" d="M327.93,74.92c-.72-.71-1.07-1.66-1.07-2.83V22.37h22.29c4.24,0,7.65,1.05,10.23,3.14,2.58,2.1,3.87,4.85,3.87,8.27v4.37c0,2.1-.46,4.02-1.38,5.78-.92,1.76-2.14,3.13-3.68,4.1v.08c2.55.61,4.6,1.88,6.13,3.79,1.53,1.92,2.3,4.15,2.3,6.7v4.14c0,3.98-1.3,7.19-3.91,9.61-2.61,2.43-6.08,3.64-10.42,3.64h-21.53c-1.17,0-2.12-.36-2.83-1.07h0ZM350.68,47.11c2.5,0,4.52-.82,6.05-2.45,1.53-1.63,2.3-3.8,2.3-6.51v-4.37c0-2.25-.91-4.09-2.72-5.51-1.81-1.43-4.2-2.14-7.17-2.14h-18.08v20.99h19.61ZM351.91,72.16c3.17,0,5.71-.85,7.62-2.57,1.92-1.71,2.87-4,2.87-6.86v-4.14c0-2.35-.83-4.25-2.49-5.71-1.66-1.46-3.84-2.18-6.55-2.18h-22.29v21.45h20.84Z"/><path id="_路径-2" d="M376.74,72.55c-2.68-2.71-4.02-6.38-4.02-11.03h4.14c0,3.47.97,6.22,2.91,8.24,1.94,2.02,4.57,3.02,7.89,3.02h8.58c3.22,0,5.81-.74,7.77-2.22,1.96-1.48,2.95-3.42,2.95-5.82v-5.21c0-1.94-.72-3.6-2.14-4.98-1.43-1.38-3.42-2.27-5.98-2.68l-13.71-2.3c-3.68-.61-6.55-1.94-8.62-3.98-2.07-2.04-3.1-4.6-3.1-7.66v-4.44c0-3.52,1.33-6.36,3.98-8.5,2.65-2.14,6.15-3.22,10.49-3.22h8.66c4.14,0,7.47,1.25,10,3.75,2.53,2.5,3.79,5.8,3.79,9.88h-4.14c0-2.96-.88-5.35-2.64-7.16-1.76-1.81-4.1-2.72-7.01-2.72h-8.66c-3.12,0-5.61.73-7.47,2.18-1.87,1.46-2.8,3.38-2.8,5.78v4.44c0,2.04.69,3.75,2.07,5.13,1.38,1.38,3.32,2.27,5.82,2.68l13.64,2.38c3.78.66,6.73,1.99,8.85,3.98,2.12,1.99,3.18,4.47,3.18,7.43v5.21c0,3.58-1.36,6.45-4.06,8.62-2.71,2.17-6.31,3.26-10.8,3.26h-8.73c-4.55,0-8.16-1.35-10.84-4.06h0Z"/><path id="_形状-3" d="M60.66,24.4c-4.54-1.94-9.71-2.91-15.51-2.91H4.4v73.92c0,3.42,1.1,6.18,3.3,8.29,2.2,2.12,5.04,3.17,8.54,3.17h29.4c10.57,0,18.58-2.71,24.03-8.11,1.83-1.81,3.35-3.91,4.56-6.3l-13.57-68.07ZM61,74.19c0,5.86-1.34,10.29-4.02,13.3-2.69,3.01-6.63,4.51-11.84,4.51h-23.91v-55.62h23.42c4.88,0,8.82,1.4,11.83,4.21,3.01,2.81,4.51,6.53,4.51,11.16v22.44h0Z"/><polygon id="_路径-3" points="227.08 36.13 227.08 21.49 177.06 21.49 176.79 22.83 163.16 90.62 163.16 106.88 179.99 106.88 179.99 73.7 222.57 73.7 222.57 59.06 179.99 59.06 179.99 36.13 227.08 36.13 227.08 36.13"/><path id="_路径-4" d="M170.1,21.49l-6.94,34.53-8.31,41.34c-.65,3.25-1.85,5.66-3.6,7.2-1.75,1.54-4.12,2.32-7.14,2.32h-7.07l-18.17-58.55h-.25l-18.54,58.55h-7.08c-2.77,0-5.08-.69-6.95-2.08-1.88-1.38-3.17-3.86-3.9-7.44l-4.33-21.69-9.23-46.32-1.57-7.87h17.08l10.49,60.63h.24l17.69-56.12h6.1c2.03,0,3.8.53,5.31,1.59,1.5,1.06,2.66,2.97,3.48,5.73l14.88,48.67h.24l10.49-60.5h17.08,0Z"/><path id="_路径-5" d="M279.28,85.19c3.95,0,7.47,1.1,10.47,3.28,2.24,1.63,3.91,3.66,5.39,5.45,1.19,1.44,2.42,2.93,3.67,3.84.78.56,1.54.94,2.77.94s2-.38,2.77-.94c1.24-.9,2.47-2.39,3.66-3.84,1.48-1.79,3.15-3.82,5.39-5.45,3-2.18,6.52-3.28,10.47-3.28s7.47,1.1,10.46,3.28c2.24,1.63,3.92,3.66,5.39,5.45,1.19,1.44,2.42,2.93,3.66,3.84.78.56,1.54.94,2.77.94s2-.38,2.77-.94c1.25-.9,2.47-2.39,3.67-3.84,1.48-1.79,3.15-3.82,5.39-5.44,2.99-2.18,6.52-3.28,10.46-3.28s7.47,1.1,10.46,3.28c2.24,1.63,3.92,3.66,5.39,5.45,1.19,1.44,2.42,2.93,3.67,3.84.78.56,1.54.94,2.77.94s2-.38,2.77-.94c1.25-.9,2.47-2.39,3.67-3.84,1.48-1.79,3.15-3.82,5.39-5.45,2.28-1.66,4.87-2.7,7.72-3.09v9.14s-.02.01-.03.02c-1.25.9-2.47,2.39-3.67,3.84-1.48,1.79-3.15,3.82-5.39,5.45-3,2.18-6.52,3.28-10.46,3.28s-7.47-1.1-10.47-3.28c-2.24-1.63-3.91-3.66-5.39-5.44-1.19-1.44-2.42-2.93-3.67-3.84-.77-.56-1.54-.94-2.77-.94s-2,.38-2.77.94c-1.24.9-2.47,2.39-3.66,3.84-1.48,1.79-3.15,3.82-5.39,5.45-3,2.18-6.52,3.28-10.47,3.28s-7.47-1.1-10.46-3.28c-2.24-1.63-3.92-3.66-5.39-5.45-1.19-1.44-2.42-2.93-3.66-3.84-.78-.56-1.54-.94-2.77-.94s-2,.38-2.77.94c-1.25.9-2.47,2.39-3.67,3.84-1.48,1.79-3.15,3.82-5.39,5.44-3,2.18-6.52,3.28-10.47,3.28s-7.47-1.1-10.46-3.28c-2.24-1.63-3.92-3.66-5.39-5.45-1.19-1.44-2.42-2.93-3.67-3.84-.78-.56-1.54-.94-2.77-.94s-2,.38-2.77.94c-1.24.9-2.47,2.39-3.66,3.83-1.48,1.79-3.16,3.82-5.39,5.45-3,2.18-6.52,3.28-10.46,3.28s-7.47-1.1-10.46-3.28c-2.24-1.63-3.91-3.66-5.39-5.44-1.19-1.44-2.42-2.93-3.66-3.84,0,0-.02-.01-.03-.02v-9.14c2.85.4,5.44,1.43,7.72,3.09,2.24,1.63,3.91,3.66,5.39,5.45,1.19,1.44,2.42,2.93,3.66,3.84.78.56,1.54.94,2.77.94s2-.38,2.77-.94c1.24-.9,2.47-2.39,3.66-3.84,1.48-1.79,3.15-3.82,5.39-5.45,3-2.18,6.52-3.28,10.46-3.28h0Z"/></g></g></g></g></svg>