<?xml version="1.0" encoding="UTF-8"?>
<svg id="_图层_1" xmlns="http://www.w3.org/2000/svg" version="1.1" viewBox="0 0 387 127.6">
  <!-- Generator: Adobe Illustrator 29.1.0, SVG Export Plug-In . SVG Version: 2.1.0 Build 142)  -->
  <path d="M229.8,37.5h-9.6v10.3h-5.7v9.1h5.7v23.7c0,2.1.2,4.1.9,6.1.5,1.5,1.4,2.8,2.6,3.8,1.1,1,2.5,1.8,3.9,2.2,3.3.8,6.8.8,10.1,0,1.3-.3,2.6-.9,3.8-1.5v-7.3c-1.8.8-3.7,1.2-5.7,1.2-1.6.2-3.3-.4-4.4-1.5-1.1-1-1.7-2.4-1.7-4.7v-22h11.8v-9.1h-11.8v-10.3ZM199.6,51.1c-10.4-7.6-25.1-5.4-32.7,5.1-7.6,10.4-5.4,25.1,5.1,32.7,8.2,6,19.4,6,27.7,0v3.2h9.6v-44.3h-9.6v3.2ZM185.8,83.8c-7.6,0-13.8-6.2-13.8-13.8s6.2-13.8,13.8-13.8c7.6,0,13.8,6.2,13.8,13.8h0c0,7.6-6.2,13.8-13.8,13.8h0ZM133.2,61.3v10.7h14.4c-1.8,7.8-8.9,13.3-17,13.1-10.2,0-18.4-8.3-18.4-18.4,0-10.2,8.3-18.4,18.4-18.4,5.3,0,10.3,2.3,13.8,6.3l8.3-6.7c-10.4-12.2-28.7-13.8-41-3.4-12.2,10.4-13.8,28.7-3.4,41,5.5,6.5,13.6,10.3,22.2,10.3,7.6.1,14.9-2.8,20.2-8.2,4.5-4.6,7.3-10.6,7.9-17.1.3-3.1.3-6.1.1-9.2h-25.7ZM349,46.5c-12.9,0-23.4,10.5-23.4,23.4s10.5,23.4,23.4,23.4c12.9,0,23.4-10.5,23.4-23.4h0c0-12.9-10.5-23.4-23.4-23.5,0,0,0,0,0,0h0ZM349,83.8c-7.6,0-13.8-6.2-13.8-13.8,0-7.6,6.2-13.8,13.8-13.8,7.6,0,13.8,6.2,13.8,13.8h0c0,7.6-6.2,13.8-13.8,13.8h0ZM309.9,92.2h10.3v-39.7h-10.3v39.7ZM294.1,92.2h10.3v-10.4h-10.3v10.4ZM268,46.5c-12.9,0-23.4,10.5-23.5,23.4,0,12.9,10.5,23.4,23.4,23.5,8.6,0,16.5-4.7,20.6-12.3l-8.7-4.2c-3.9,6.6-12.4,8.8-18.9,4.9-3.1-1.8-5.4-4.9-6.4-8.4h36.6c2-12.8-6.8-24.8-19.6-26.7-1.2-.2-2.4-.3-3.5-.3h0ZM255,65.1c2.7-7.1,10.7-10.8,17.8-8.1,3.7,1.4,6.7,4.3,8.1,8.1h-25.9ZM309.9,47.9h10.3v-10.3h-10.3v10.3Z"/>
  <path d="M50.6,87.6c-12.6,0-22.9-10.2-22.9-22.9s10.2-22.9,22.9-22.9v-18.7c-23,0-41.6,18.6-41.6,41.6s18.6,41.6,41.6,41.6,41.6-18.6,41.6-41.6h-18.7c0,12.6-10.2,22.9-22.9,22.9h0Z"/>
  <rect x="50.6" y="41.9" width="22.9" height="22.9"/>
</svg>