<?xml version="1.0" encoding="UTF-8"?>
<svg id="_图层_1" xmlns="http://www.w3.org/2000/svg" xmlns:xlink="http://www.w3.org/1999/xlink" version="1.1" viewBox="0 0 541 127.6">
  <!-- Generator: Adobe Illustrator 29.1.0, SVG Export Plug-In . SVG Version: 2.1.0 Build 142)  -->
  <defs>
    <style>
      .st0 {
        fill: url(#_未命名的渐变_8);
      }

      .st1 {
        opacity: .6;
      }

      .st2 {
        opacity: .3;
      }
    </style>
    <linearGradient id="_未命名的渐变_8" data-name="未命名的渐变 8" x1="47" y1="63.6" x2="111.4" y2="39.8" gradientTransform="translate(0 129) scale(1 -1)" gradientUnits="userSpaceOnUse">
      <stop offset="0" stop-color="#000" stop-opacity="0"/>
      <stop offset="1" stop-color="#000"/>
    </linearGradient>
  </defs>
  <g>
    <path class="st1" d="M134.4,79.3l-26.5-45.9c-5.8-9.6-20-9.7-25.6.4l-27.8,47.7c-5.2,8.8,1.2,19.7,11.6,19.7h55.8c10.4,0,18.3-11.3,12.4-22Z"/>
    <path class="st2" d="M96.2,82.9l-1.6-2.8c-1.6-2.7-4.9-8.4-4.9-8.4l-22.4-39c-5.8-8.6-19.6-9.4-25.3,1.6l-26.1,45.2c-5.4,9.5,1,21.8,12.8,21.9h93.1c-14.3,0-18.9-7.4-25.4-18.4Z"/>
    <path class="st0" d="M96.2,82.8l-1.6-2.8c-1.6-2.7-4.9-8.4-4.9-8.4l-14.5-25.5-20.8,35.5c-5.2,8.8,1.2,19.7,11.6,19.7h55.6c-14.4,0-18.9-7.4-25.4-18.5Z"/>
  </g>
  <path d="M478.9,45.9c3.9-3.6,10.7-5.3,20.6-5.3h23.2v-13.2h-27.4c-6.6,0-12.1.7-16.4,2.1-4.2,1.4-7.9,3.5-11.1,6.6-3.4,3.3-6,7.3-7.9,12.2-1.9,4.9-2.8,10.3-2.8,15.9s.9,10.5,2.8,15.3c1.9,4.7,4.6,8.9,7.9,12.2,3.1,3,6.8,5.2,10.9,6.6,4.2,1.4,9.8,2.1,16.5,2.1h27.4v-13h-23.2c-5.3,0-8.9-.2-10.9-.6-2.2-.4-4.1-1.1-5.8-2.2-3.3-2.1-5.8-4.7-7.4-8.1-1.6-3.3-2.3-7.4-2.3-12.2,0-8.3,2-14.4,5.9-18Z"/>
  <path d="M277.1,100.2h64.6v-12.8h-48.9v-18.2h42.7v-12.1h-42.7v-16.9h48.9v-12.8h-64.6v72.7Z"/>
  <path d="M357.8,27.5l30.3,36.4-30.3,36.4h19.6l23.9-28.8v-15.1l-23.9-28.9h-19.6Z"/>
  <path d="M431.3,27.5l-23.9,28.9v15.1l23.9,28.8h19.6l-30.3-36.4,30.3-36.4h-19.6Z"/>
  <path d="M213.7,63.3l-29-35.9h-15v72.7h15.8v-48.5l25.2,30.2h6.1l25.2-30.4v48.8h15.8V27.5h-14.8l-29.1,35.9Z"/>
</svg>