<?xml version="1.0" encoding="UTF-8"?><svg id="_图层_1" xmlns="http://www.w3.org/2000/svg" viewBox="0 0 375.44 126.6"><defs><style>.cls-1{fill-rule:evenodd;}</style></defs><path d="M168.13,35.57c-.15-1.5-.69-2.63-1.63-3.36-.94-.74-2.36-1.1-4.25-1.1-3.48,0-5.22,1.19-5.22,3.58,0,.85.36,1.57,1.08,2.14.72.57,1.88,1.05,3.47,1.44,1.89.44,3.52.85,4.91,1.24,1.39.38,2.65.83,3.8,1.33.65.26,1.26.6,1.83.99.57.4,1.06.89,1.46,1.48.4.59.72,1.3.95,2.12.24.83.35,1.83.35,3.01,0,1.42-.3,2.67-.88,3.76-.59,1.09-1.39,2.01-2.39,2.76-1,.75-2.18,1.33-3.54,1.72-1.36.4-2.79.6-4.29.6-4.27,0-7.49-.83-9.64-2.48-2.15-1.65-3.29-4.1-3.4-7.34h5.93c.03,1.5.64,2.69,1.83,3.56,1.19.87,2.69,1.3,4.49,1.3,1.95,0,3.42-.35,4.42-1.06,1-.71,1.5-1.67,1.5-2.87,0-.47-.06-.91-.18-1.3-.12-.4-.35-.76-.68-1.08-.34-.32-.8-.61-1.39-.86-.59-.25-1.36-.48-2.3-.68-2.24-.47-4.18-.95-5.82-1.44-1.64-.48-2.99-1.09-4.05-1.81-1.06-.72-1.84-1.6-2.34-2.63-.5-1.03-.75-2.34-.75-3.94,0-1.21.22-2.34.66-3.4.44-1.06,1.12-1.98,2.03-2.76.91-.78,2.04-1.4,3.38-1.86,1.34-.46,2.93-.68,4.75-.68s3.36.23,4.78.68c1.41.46,2.63,1.11,3.65,1.95,1.02.84,1.81,1.86,2.37,3.05.56,1.19.87,2.51.93,3.96h-5.84,0ZM190.46,56.27v-3.05c-1.47,2.42-3.73,3.63-6.77,3.63-1.09,0-2.09-.19-2.99-.57-.9-.38-1.67-.93-2.32-1.63-.65-.71-1.16-1.55-1.52-2.52-.37-.97-.55-2.06-.55-3.27v-14.33h5.75v13.44c0,2.71,1.22,4.07,3.67,4.07,1.47,0,2.59-.46,3.34-1.39.75-.93,1.13-2.12,1.13-3.56v-12.56h5.7v21.76h-5.44,0ZM198.33,56.27v-21.76h5.75v21.76h-5.75ZM198.33,31.9v-5.35h5.75v5.35h-5.75ZM219.61,41.1c-.15-1-.52-1.73-1.13-2.19-.6-.46-1.53-.68-2.76-.68s-2.07.14-2.68.42c-.61.28-.91.76-.91,1.44,0,.59.3,1.06.91,1.41.61.35,1.48.69,2.63,1.02,1.89.53,3.48.98,4.78,1.35,1.3.37,2.34.8,3.12,1.3.78.5,1.34,1.13,1.68,1.88.34.75.51,1.76.51,3.03,0,1.94-.81,3.56-2.43,4.84-1.62,1.28-4.02,1.92-7.21,1.92-1.56,0-2.98-.18-4.24-.53-1.27-.35-2.35-.86-3.25-1.53-.9-.66-1.59-1.46-2.08-2.39-.48-.93-.74-1.97-.77-3.12h5.93c0,1.03.41,1.83,1.22,2.39.81.56,1.86.84,3.16.84,1.09,0,2.03-.17,2.81-.51.78-.34,1.17-.86,1.17-1.57,0-.8-.29-1.37-.86-1.73-.57-.35-1.45-.66-2.63-.93-2.12-.47-3.83-.97-5.13-1.48-1.3-.52-2.31-1.08-3.03-1.7-.72-.62-1.21-1.3-1.46-2.03-.25-.74-.38-1.56-.38-2.48,0-.83.17-1.61.51-2.34.34-.74.88-1.39,1.61-1.95.74-.56,1.7-1.01,2.88-1.35,1.18-.34,2.62-.51,4.33-.51,3.13,0,5.41.63,6.86,1.9,1.44,1.27,2.24,3.02,2.39,5.26h-5.53,0ZM240.26,41.1c-.15-1-.52-1.73-1.13-2.19-.6-.46-1.52-.68-2.76-.68s-2.07.14-2.67.42c-.6.28-.91.76-.91,1.44,0,.59.3,1.06.91,1.41.61.35,1.48.69,2.63,1.02,1.89.53,3.48.98,4.78,1.35,1.3.37,2.34.8,3.12,1.3.78.5,1.34,1.13,1.68,1.88.34.75.51,1.76.51,3.03,0,1.94-.81,3.56-2.43,4.84-1.62,1.28-4.03,1.92-7.21,1.92-1.56,0-2.98-.18-4.24-.53-1.27-.35-2.35-.86-3.25-1.53-.9-.66-1.59-1.46-2.08-2.39-.48-.93-.74-1.97-.77-3.12h5.93c0,1.03.41,1.83,1.22,2.39.81.56,1.86.84,3.16.84,1.09,0,2.03-.17,2.81-.51.78-.34,1.17-.86,1.17-1.57,0-.8-.29-1.37-.86-1.73-.57-.35-1.45-.66-2.63-.93-2.12-.47-3.83-.97-5.13-1.48-1.29-.52-2.31-1.08-3.03-1.7-.72-.62-1.21-1.3-1.46-2.03-.25-.74-.38-1.56-.38-2.48,0-.83.17-1.61.51-2.34.34-.74.88-1.39,1.61-1.95.74-.56,1.7-1.01,2.88-1.35,1.18-.34,2.63-.51,4.33-.51,3.13,0,5.41.63,6.86,1.9,1.44,1.27,2.24,3.02,2.39,5.26h-5.53ZM262.15,43.27c-.03-.79-.17-1.5-.42-2.1-.25-.6-.58-1.1-.99-1.5-.41-.4-.88-.69-1.41-.88-.53-.19-1.08-.29-1.64-.29-1.15,0-2.15.42-2.99,1.26-.84.84-1.32,2.01-1.44,3.52h8.89ZM253.09,46.89c.09,1.65.57,2.96,1.44,3.94.87.97,2.01,1.46,3.43,1.46.94,0,1.78-.21,2.5-.64.72-.43,1.19-1.02,1.39-1.79h5.93c-.68,2.24-1.86,3.96-3.54,5.17-1.68,1.21-3.69,1.81-6.01,1.81-7.26,0-10.88-3.95-10.88-11.85,0-1.68.24-3.2.71-4.56.47-1.36,1.16-2.52,2.06-3.49.9-.97,2-1.72,3.29-2.23,1.3-.52,2.79-.77,4.47-.77,3.36,0,5.9,1.08,7.63,3.23,1.73,2.15,2.59,5.4,2.59,9.73h-14.99,0Z"/><path d="M165.21,89.5c1.41,0,2.52-.4,3.32-1.2.79-.79,1.19-1.8,1.19-3.01,0-1.3-.39-2.24-1.17-2.83-.78-.59-1.87-.88-3.25-.88h-7.87v7.92h7.78ZM157.42,70.22v6.37h7.74c2.48,0,3.72-1.06,3.72-3.18,0-1.12-.32-1.93-.95-2.43-.63-.5-1.67-.75-3.12-.75h-7.39ZM151.5,94.5v-29.36h14.46c2.89,0,5.09.71,6.59,2.14,1.5,1.43,2.26,3.39,2.26,5.86,0,1.27-.34,2.4-1.02,3.39-.68.99-1.53,1.69-2.56,2.1.62.24,1.2.54,1.75.91.55.37,1.02.84,1.41,1.42.4.57.72,1.25.95,2.03.24.78.35,1.71.35,2.76,0,2.68-.9,4.81-2.7,6.39-1.8,1.58-4.56,2.37-8.27,2.37h-13.23ZM176.84,94.5v-29.72h5.75v29.72h-5.75ZM195.55,90.26c3.51,0,5.26-2.21,5.26-6.63s-1.75-6.59-5.26-6.59-5.26,2.2-5.26,6.59,1.75,6.63,5.26,6.63ZM195.55,95.07c-1.77,0-3.35-.28-4.73-.84-1.39-.56-2.56-1.34-3.52-2.34-.96-1-1.69-2.21-2.19-3.63-.5-1.42-.75-2.96-.75-4.64s.26-3.27.77-4.69c.52-1.42,1.26-2.62,2.23-3.63.97-1,2.14-1.78,3.52-2.32,1.37-.54,2.93-.82,4.67-.82s3.24.28,4.6.82c1.36.55,2.51,1.31,3.47,2.3.96.99,1.69,2.19,2.21,3.61.52,1.42.77,2.99.77,4.73s-.26,3.31-.77,4.71c-.52,1.4-1.25,2.6-2.21,3.6-.96,1-2.12,1.78-3.49,2.32-1.37.55-2.9.82-4.58.82h0ZM228.05,86.63c-.15,1.27-.51,2.42-1.08,3.45-.57,1.03-1.31,1.92-2.19,2.66-.89.74-1.9,1.31-3.03,1.72-1.13.41-2.37.62-3.69.62-1.47,0-2.82-.24-4.05-.73-1.22-.48-2.28-1.22-3.16-2.21-.88-.99-1.57-2.21-2.05-3.67-.48-1.46-.73-3.16-.73-5.11s.24-3.63.73-5.04c.49-1.42,1.17-2.57,2.05-3.47.88-.9,1.96-1.57,3.21-2.01,1.25-.44,2.65-.66,4.18-.66,1.41,0,2.71.19,3.87.57,1.16.38,2.18.94,3.05,1.68.87.74,1.56,1.62,2.05,2.66.5,1.03.8,2.18.88,3.45h-5.79c-.15-1.12-.6-2-1.35-2.63-.75-.63-1.67-.95-2.76-.95-.62,0-1.19.1-1.72.31-.53.21-.99.55-1.39,1.04-.4.49-.71,1.14-.95,1.94-.23.81-.35,1.81-.35,2.98,0,2.39.43,4.16,1.28,5.31.86,1.15,1.84,1.72,2.96,1.72s2.08-.31,2.87-.93c.8-.62,1.25-1.52,1.37-2.7h5.8ZM242.87,94.5l-4.78-9.77-2.79,2.88v6.9h-5.79v-29.72h5.79v16.23l7.16-8.27h7.03l-7.29,8,7.12,13.75h-6.46ZM267.99,86.63c-.15,1.27-.51,2.42-1.08,3.45-.57,1.03-1.3,1.92-2.19,2.66-.89.74-1.9,1.31-3.03,1.72-1.13.41-2.37.62-3.69.62-1.47,0-2.82-.24-4.05-.73-1.22-.48-2.28-1.22-3.16-2.21-.88-.99-1.57-2.21-2.05-3.67-.48-1.46-.73-3.16-.73-5.11s.24-3.63.73-5.04c.49-1.42,1.17-2.57,2.05-3.47.89-.9,1.96-1.57,3.21-2.01,1.25-.44,2.65-.66,4.18-.66,1.42,0,2.71.19,3.87.57,1.16.38,2.18.94,3.05,1.68.87.74,1.56,1.62,2.05,2.66.5,1.03.8,2.18.89,3.45h-5.79c-.15-1.12-.6-2-1.35-2.63-.75-.63-1.67-.95-2.76-.95-.62,0-1.2.1-1.73.31-.53.21-.99.55-1.39,1.04-.4.49-.71,1.14-.95,1.94-.23.81-.36,1.81-.36,2.98,0,2.39.43,4.16,1.28,5.31.86,1.15,1.84,1.72,2.96,1.72s2.08-.31,2.87-.93c.8-.62,1.25-1.52,1.37-2.7h5.79ZM283.38,94.5v-13.49c0-1.65-.29-2.78-.86-3.38-.58-.6-1.53-.91-2.85-.91-.71,0-1.34.14-1.9.42-.56.28-1.03.66-1.42,1.15-.38.49-.67,1.04-.86,1.68-.19.63-.29,1.32-.29,2.05v12.47h-5.75v-29.72h5.75v10.79c.21-.47.52-.92.95-1.35.43-.43.92-.79,1.48-1.08.56-.29,1.18-.53,1.86-.71.68-.18,1.39-.27,2.12-.27,2.24,0,4.06.61,5.46,1.83,1.4,1.23,2.1,2.93,2.1,5.11v15.39h-5.79ZM304.69,83.84c-.29.3-.72.53-1.28.71-.56.18-1.37.37-2.43.57-1.65.33-2.79.74-3.4,1.24-.62.5-.93,1.22-.93,2.17,0,1.62.93,2.43,2.79,2.43.74,0,1.42-.13,2.05-.38.63-.25,1.18-.59,1.64-1.02.46-.43.83-.93,1.11-1.5.28-.57.42-1.18.42-1.83l.04-2.39ZM305.09,94.5c-.18-.56-.29-1.21-.36-1.94-.68.77-1.58,1.38-2.7,1.83-1.12.45-2.42.68-3.89.68-2.51,0-4.34-.55-5.51-1.66-1.17-1.1-1.75-2.54-1.75-4.31,0-1.56.25-2.81.75-3.74.5-.93,1.19-1.66,2.08-2.19.89-.53,1.94-.92,3.16-1.17,1.22-.25,2.56-.48,4-.69,1.44-.21,2.42-.48,2.92-.82.5-.34.75-.89.75-1.66,0-.71-.33-1.26-.99-1.66-.66-.4-1.55-.6-2.67-.6-1.33,0-2.28.3-2.85.88-.58.59-.94,1.37-1.08,2.34h-5.35c.03-1.12.22-2.15.55-3.1.34-.94.89-1.75,1.64-2.43.75-.68,1.73-1.2,2.94-1.57,1.21-.37,2.69-.55,4.42-.55s3.16.19,4.36.57c1.2.38,2.15.94,2.87,1.66.72.72,1.24,1.62,1.57,2.7.33,1.08.49,2.29.49,3.65v13.75h-5.35,0ZM312.87,94.5v-21.76h5.75v21.76h-5.75ZM312.87,70.13v-5.35h5.75v5.35h-5.75ZM334.99,94.5v-13.18c0-1.68-.28-2.81-.84-3.41-.56-.59-1.52-.88-2.87-.88-2.98,0-4.47,1.67-4.47,5v12.47h-5.75v-21.76h5.48v3.19c.68-1.24,1.58-2.17,2.7-2.81,1.12-.63,2.57-.95,4.33-.95,1.03,0,1.99.15,2.87.46.88.31,1.64.78,2.28,1.39.63.62,1.13,1.38,1.5,2.28.37.9.55,1.94.55,3.12v15.08h-5.79,0Z"/><path class="cls-1" d="M66.47,80.17v-3.95h-7.3c-1.84,0-3.35-1.5-3.35-3.34V23.8c0-6.42,5.25-11.68,11.67-11.68h21.77c6.42,0,11.68,5.25,11.68,11.68v11.3c0,1.84-1.51,3.35-3.35,3.35s-3.35-1.51-3.35-3.35v-11.3c0-2.74-2.24-4.98-4.98-4.98h-21.77c-2.74,0-4.98,2.24-4.98,4.98v28.59h3.95v-7.3c0-1.84,1.51-3.35,3.35-3.35h49.07c6.42,0,11.67,5.25,11.67,11.68v21.78c0,6.42-5.25,11.68-11.67,11.68h-11.3c-1.84,0-3.35-1.51-3.35-3.35s1.51-3.35,3.35-3.35h11.3c2.74,0,4.98-2.24,4.98-4.98v-21.78c0-2.74-2.24-4.98-4.98-4.98h-28.59v3.95h7.3c1.84,0,3.35,1.51,3.35,3.35v49.07c0,6.42-5.25,11.68-11.68,11.68h-21.77c-6.42,0-11.67-5.26-11.67-11.68v-11.31c0-1.84,1.51-3.34,3.35-3.34s3.35,1.51,3.35,3.34v11.31c0,2.74,2.24,4.98,4.98,4.98h21.77c2.74,0,4.98-2.24,4.98-4.98v-28.59h-3.95v7.3c0,1.84-1.51,3.35-3.35,3.35h-49.08c-6.42,0-11.68-5.26-11.68-11.68v-21.78c0-6.42,5.25-11.68,11.68-11.68h11.3c1.84,0,3.35,1.51,3.35,3.35s-1.51,3.35-3.35,3.35h-11.3c-2.74,0-4.98,2.24-4.98,4.98v21.78c0,2.74,2.24,4.98,4.98,4.98h28.59ZM94.25,69.52v-10.44h-10.65v-10.65h-10.44v10.65h-10.65v10.44h10.65v10.65h10.44v-10.65h10.65Z"/><path d="M346.9,60.21c.55,0,1,.07,1.36.2.36.13.62.34.8.62.18.28.27.63.27,1.06,0,.35-.06.65-.19.88-.13.24-.3.43-.5.57-.21.15-.43.26-.66.34l1.83,2.99h-.9l-1.63-2.78h-1.39v2.78h-.77v-6.67h1.8ZM346.86,60.88h-.98v2.56h1.06c.54,0,.94-.11,1.2-.33.26-.22.39-.55.39-.98s-.14-.77-.41-.96c-.27-.19-.69-.28-1.26-.28Z"/><path d="M347.11,70.13c-3.49,0-6.33-2.84-6.33-6.33s2.84-6.33,6.33-6.33,6.33,2.84,6.33,6.33-2.84,6.33-6.33,6.33ZM347.11,58.23c-3.07,0-5.58,2.5-5.58,5.57s2.5,5.57,5.58,5.57,5.58-2.5,5.58-5.57-2.5-5.57-5.58-5.57Z"/></svg>