<?xml version="1.0" encoding="UTF-8"?>
<svg id="_图层_1" xmlns="http://www.w3.org/2000/svg" version="1.1" viewBox="0 0 434.9 127.6">
  <!-- Generator: Adobe Illustrator 29.1.0, SVG Export Plug-In . SVG Version: 2.1.0 Build 142)  -->
  <path d="M146.6,34c5.8,0,10.3,1.3,13.6,4.2,1.6,1.3,2.8,3,3.6,4.9.8,1.9,1.2,3.9,1.1,6,0,3-.8,6-2.5,8.5-1.8,2.3-4.2,4-6.9,4.9,3.5.4,6.7,2.1,8.9,4.8,2.2,2.7,3.3,6.1,3,9.6,0,6-2.1,10.3-6.1,13.1-3.5,2.4-8.4,3.6-14.7,3.6h-27.1v-59.4h27.2ZM128.5,59.2h15.6c4.2,0,7.1-.8,9-2.2,1.9-1.4,2.7-3.8,2.7-7s-.9-5.2-2.7-6.5c-1.8-1.3-4.8-2.1-8.8-2.1h-15.8v17.7ZM128.5,85.9h16.8c3.1.1,6.2-.5,9-1.8,1.3-.7,2.4-1.8,3.1-3.2.7-1.3,1.1-2.8,1-4.3,0-3.5-1.1-6.1-3.2-7.7-2.1-1.6-5.3-2.4-9.7-2.4h-17v19.3Z"/>
  <path d="M185.8,50.4v43h-8.8v-43h8.8ZM185.8,42.8h-8.8v-8.8h8.8v8.8Z"/>
  <path d="M357.5,93.4v-43h8.8v9.4c1.6-4.8,6.4-9.4,14.2-9.4h2.9v8.8h-4.4c-8.1,0-12.9,3.2-12.9,8v26.2h-8.7Z"/>
  <path d="M343.9,53.9c-3-3.2-7.7-4.7-14-4.7s-9.7.9-12.8,2.9c-1.8,1.1-3.4,2.6-4.6,4.4-1.2,1.8-2,3.8-2.3,5.9l8.7.8c.2-1.1.6-2.2,1.3-3.1.6-.9,1.5-1.7,2.5-2.2,2-1.1,4.3-1.6,6.7-1.5,6.5,0,9.7,3,9.7,9v.6h-13.4c-6.2,0-11,2.1-14.4,6.4-1.8,2.2-2.8,5-2.8,7.8,0,7.3,6.3,13.2,14.2,13.2s3,0,4.2-.2c.4,0,.9-.1,1.3-.3,1.8-.3,3.6-.8,5.2-1.6,2.1-1.1,4-2.6,5.6-4.5v6.5h8.8v-27.4c0-5.2-1.4-9.3-3.9-12ZM338.9,75.6c-.2,3-1.5,6.7-4,8.8-2.7,2.3-5.8,2.2-9.6,2.2-1.9,0-3.8-.5-5.4-1.7-.7-.5-1.2-1.1-1.5-1.8-.4-.7-.5-1.5-.5-2.3,0-5,3.6-7.7,10.6-8.2h10.5v2.9Z"/>
  <path d="M288,34l-22.6,49.7-22.6-49.7h-10.2v59.4h8.8v-43l19.6,43h8.8l19.6-43.1v43.1h8.8v-59.4h-10.2Z"/>
  <path d="M407.8,85.9v-26.7h9.8v-8.8h-9.8v-12h-8.8v12h-8v8.8h8v24.9c0,5.7,3.2,9.3,9.3,9.3h9.3v-7.5h-9.8Z"/>
  <path d="M212.5,85.9v-26.7h9.8v-8.8h-9.8v-12h-8.8v12h-8v8.8h8v24.9c0,5.7,3.2,9.3,9.3,9.3h9.3v-7.5h-9.8Z"/>
  <path d="M63.7,86.4h-32v2.8h32v-2.8Z"/>
  <path d="M39.8,103.8H15.8v2.8h24v-2.8Z"/>
  <path d="M23.7,86.4H7.8v2.8h16v-2.8Z"/>
  <path d="M63.7,78.3h-24v2.8h24v-2.8Z"/>
  <path d="M31.7,78.3h-16v2.8h16v-2.8Z"/>
  <path d="M63.7,42.2H23.7v2.8h40v-2.8Z"/>
  <path d="M31.7,32.9h-16v2.8h16v-2.8Z"/>
  <path d="M85,59.7h0c2.8-4.9,4.2-10.4,4.2-16.1,0-5.6-1.5-11.1-4.3-16-2.8-4.9-6.8-8.9-11.7-11.7-4.9-2.8-10.4-4.3-16-4.3H23.7v4h33.6c4.3,0,8.5,1,12.4,2.9,3.9,1.9,7.2,4.7,9.8,8.1,2.6,3.4,4.4,7.4,5.2,11.6.8,4.2.6,8.6-.5,12.7.8-3.6.9-7.3,0-10.9-.8-3.6-2.4-7-4.7-9.9-2.3-2.9-5.2-5.2-8.5-6.8-3.3-1.6-7-2.4-10.6-2.5h-28.7v4h28.7c3.2,0,6.4.8,9.3,2.2,2.9,1.5,5.4,3.6,7.3,6.2,1.9,2.6,3.2,5.6,3.7,8.8.5,3.2.3,6.4-.7,9.5.6-2.4.7-4.8.2-7.2-.5-2.4-1.5-4.7-3-6.6-1.5-1.9-3.4-3.5-5.6-4.6-2.2-1.1-4.6-1.7-7-1.7h-24.9v4h24.8c2.1,0,4.2.6,6,1.6,1.8,1.1,3.3,2.6,4.4,4.4,1.1,1.8,1.6,3.9,1.6,6,0,2.1-.5,4.2-1.6,6-3.6-1.3-7.4-2-11.2-2h-32v4h32c6.5,0,12.8,2.3,17.9,6.4,5,4.2,8.4,9.9,9.7,16.3-1.2-5.3-4.2-10-8.4-13.4-4.2-3.4-9.5-5.2-14.9-5.2H23.7v4h44.2c4.8,0,9.4,1.8,13,4.9,3.6,3.1,6,7.5,6.7,12.2-.7-3.7-2.6-7-5.5-9.4-2.9-2.4-6.5-3.7-10.2-3.7H23.8v4h48.1c3.2,0,6.2,1.3,8.5,3.5,2.3,2.2,3.5,5.3,3.5,8.5s-1.3,6.2-3.5,8.5c-2.2,2.2-5.3,3.5-8.5,3.5H15.8v4h56.1c3.7,0,7.4-1.3,10.2-3.7,2.9-2.4,4.8-5.7,5.5-9.4-.7,4.8-3.1,9.1-6.7,12.2-3.6,3.1-8.3,4.9-13.1,4.9h-20.1v4h20.1c5.2,0,10.3-1.7,14.4-4.9,4.2-3.1,7.2-7.6,8.6-12.6-1.5,6.1-5,11.5-9.9,15.3-4.9,3.9-11,6-17.2,6H23.8v4h39.9c6.5,0,12.9-1.9,18.2-5.6,5.4-3.7,9.5-8.9,11.8-15,2.3-6.1,2.7-12.7,1.2-19-1.6-6.3-5-12-9.9-16.3h0Z"/>
</svg>