<?xml version="1.0" encoding="UTF-8"?><svg id="_图层_1" xmlns="http://www.w3.org/2000/svg" viewBox="0 0 459.54 126.6"><path d="M113.72,30.89c-.04-.25-.13-.5-.26-.72s-.31-.41-.52-.56-.44-.26-.7-.32c-.24-.06-.49-.06-.73-.03,0,0,0,0,0,0,0,0-.02,0-.03,0-.05,0-.09.03-.14.04-.07.02-.14.03-.21.05-.49.17-.89.52-1.12.98l-16.17,33.65-.21.39c-.19-.06-.39-.1-.59-.1h-45.14L30.5,30.3s-.05-.08-.08-.12c-.02-.04-.04-.09-.07-.12,0-.01-.02-.02-.03-.03-.05-.07-.12-.14-.18-.21-.02-.02-.04-.04-.06-.06-.02-.02-.03-.04-.06-.06-.19-.17-.42-.3-.67-.38-.24-.08-.5-.11-.76-.09-.26.02-.51.09-.74.21-.23.12-.43.28-.6.48s-.29.42-.37.67c-.04.14-.07.28-.08.42l-.49,2.98c-.44,3.1-.65,6.23-.62,9.36,0,6.76.82,13.5,2.43,20.07,2.19,8.97,6.01,17.46,11.26,25.06,6.07,8.74,14.88,17.33,27.55,24.15l2.41,1.3c.07.04.14.05.21.08.06.02.12.06.19.07.17.05.35.08.53.08.32,0,.64-.08.92-.23l2.4-1.3c12.66-6.82,21.47-15.41,27.55-24.15,5.25-7.59,9.06-16.09,11.26-25.05,1.61-6.57,2.43-13.31,2.43-20.07.03-3.13-.17-6.26-.62-9.36l-.51-3.11ZM91.62,68.16l-21.29,39.84-20.42-39.84h41.71ZM42.6,86.24c-4.98-7.2-8.59-15.26-10.67-23.76-1.53-6.26-2.31-12.68-2.32-19.13-.02-1.93.06-3.86.23-5.78l35.76,69.8c-10.41-6.2-17.78-13.61-23.01-21.14ZM108.62,62.48c-2.08,8.51-5.69,16.56-10.67,23.76-5.2,7.48-12.51,14.85-22.83,21.03l22.18-41.48.04-.07,13.39-27.84c.15,1.82.23,3.65.21,5.48,0,6.45-.78,12.87-2.32,19.13Z"/><path d="M39.24,28.77c.16.2.36.36.59.48s.48.2.73.22c.26.02.52,0,.76-.08h0s28.95-8.84,28.95-8.84l29.59,9.04c.5.15,1.03.09,1.49-.15.46-.24.8-.66.95-1.15.15-.49.1-1.03-.14-1.49-.24-.46-.66-.8-1.15-.95l-30.16-9.21c-.37-.11-.77-.11-1.14,0l-29.52,9.01c-.25.07-.48.2-.68.36s-.37.36-.49.59-.2.48-.22.73c-.03.26,0,.51.07.76.07.25.2.48.36.67Z"/><path d="M143.3,47.76c-.73.3-1.4.74-1.96,1.31-.56.56-1,1.23-1.31,1.96-.3.73-.45,1.52-.45,2.31v24.1c0,.79.15,1.58.45,2.31.3.73.75,1.4,1.31,1.96.56.56,1.23,1,1.96,1.31.73.3,1.52.45,2.31.45h30.02v-4.08h-30.02c-.52,0-1.02-.21-1.38-.58-.37-.37-.57-.86-.58-1.38v-24.1c0-.52.21-1.02.58-1.38s.86-.57,1.38-.58h30.02v-4.05h-30.02c-.79,0-1.58.15-2.31.45Z"/><polygon points="199.01 83.45 232 83.45 232 79.37 203.09 79.37 203.09 67.42 226.33 67.42 226.33 63.3 203.09 63.3 203.09 51.37 232.01 51.37 232.01 47.29 199.01 47.29 199.01 83.45"/><path d="M291.06,51.05c-.3-.73-.74-1.4-1.3-1.96-.56-.56-1.23-1-1.96-1.31-.73-.3-1.52-.46-2.31-.45h-30.12v36.1h4.08v-13.65c.65.1,1.3.17,1.96.2h13.27l11.3,13.45h5.37l-11.34-13.45h5.52c.79,0,1.58-.15,2.31-.45.73-.3,1.4-.75,1.96-1.31.56-.56,1-1.23,1.31-1.96.3-.73.46-1.52.45-2.31v-10.59h-.03c0-.79-.15-1.58-.45-2.31ZM287.43,63.96c0,.25-.04.5-.14.73-.1.23-.23.44-.41.62-.18.18-.39.32-.62.41-.23.09-.48.14-.73.14h-24.1c-.26,0-.51-.04-.75-.13-.24-.09-.45-.23-.64-.41-.19-.17-.34-.38-.43-.62-.1-.23-.15-.49-.14-.74v-10.59c0-.52.21-1.02.58-1.38.37-.37.86-.57,1.38-.58h24.1c.25,0,.51.04.74.14.23.1.44.25.62.43.18.18.32.4.41.64.09.24.14.49.14.75v10.59Z"/><polygon points="313.14 51.37 329.2 51.37 329.2 83.45 333.28 83.45 333.28 51.37 349.27 51.37 349.27 47.29 313.14 47.29 313.14 51.37"/><polygon points="419.62 65.36 434.73 47.29 429.51 47.29 416.06 63.3 404.42 63.3 404.42 47.29 400.3 47.29 400.3 83.44 404.41 83.44 404.41 67.42 416.06 67.42 429.51 83.44 434.78 83.44 419.62 65.36"/><rect x="371.17" y="47.29" width="4.08" height="36.15"/></svg>