<?xml version="1.0" encoding="UTF-8"?><svg id="_图层_1" xmlns="http://www.w3.org/2000/svg" viewBox="0 0 298.68 126.6"><path d="M88.83,22.21H4.91c-.52,0-1.02.19-1.38.54-.36.33-.57.8-.57,1.29v78.53c0,.48.2.95.57,1.29.37.34.86.54,1.38.54h83.93c.52,0,1.01-.19,1.38-.54.36-.33.57-.8.57-1.29V24.03c0-.48-.2-.95-.57-1.29-.38-.35-.87-.54-1.38-.54h0ZM61.51,75.17c0,.48-.2.95-.57,1.29-.38.35-.87.54-1.38.54h-25.37c-.52,0-1.01-.19-1.38-.54-.36-.33-.57-.8-.57-1.29v-23.74c0-.48.2-.95.57-1.29.37-.34.86-.54,1.38-.54h25.37c.52,0,1.01.19,1.38.54.36.33.57.8.57,1.29v23.74ZM264.54,49.61h-25.37c-1.08,0-1.95.82-1.95,1.83v23.74c0,1.01.87,1.83,1.95,1.83h25.37c1.08,0,1.95-.82,1.95-1.83v-23.74c0-1.01-.87-1.83-1.95-1.83h0ZM235.26,22.21h-25.37c-1.08,0-1.95.82-1.95,1.83v23.74c0,1.01.87,1.83,1.95,1.83h25.37c1.08,0,1.95-.82,1.95-1.83v-23.74c0-1.01-.87-1.83-1.95-1.83h0ZM293.83,22.21h-25.37c-1.08,0-1.95.82-1.95,1.83v23.74c0,1.01.87,1.83,1.95,1.83h25.37c1.08,0,1.95-.82,1.95-1.83v-23.74c0-1.01-.87-1.83-1.95-1.83h0ZM235.26,77h-25.37c-1.08,0-1.95.82-1.95,1.83v23.74c0,1.01.87,1.82,1.95,1.82h25.37c1.08,0,1.95-.82,1.95-1.82v-23.74c0-1.01-.87-1.83-1.95-1.83h0ZM293.83,77h-25.37c-1.08,0-1.95.82-1.95,1.83v23.74c0,1.01.87,1.82,1.95,1.82h25.37c1.08,0,1.95-.82,1.95-1.82v-23.74c0-1.01-.87-1.83-1.95-1.83h0ZM191.31,22.21h-25.37c-1.08,0-1.95.82-1.95,1.83v23.74c0,1.01.87,1.83,1.95,1.83h25.37c1.08,0,1.95-.82,1.95-1.83v-23.74c0-1.01-.87-1.83-1.95-1.83h0ZM191.31,77h-25.37c-1.08,0-1.95.82-1.95,1.83v23.74c0,1.01.87,1.82,1.95,1.82h25.37c1.08,0,1.95-.82,1.95-1.82v-23.74c0-1.01-.87-1.83-1.95-1.83h0ZM163.98,51.41c0-.48-.21-.95-.57-1.29-.38-.35-.87-.54-1.38-.53h-27.33v-25.55c0-.48-.2-.95-.57-1.29-.38-.35-.87-.54-1.38-.54h-25.37c-.52,0-1.02.19-1.38.54-.36.33-.57.8-.57,1.29v78.49c0,.48.2.95.57,1.29s.86.54,1.38.54h25.37c.52,0,1.02-.19,1.38-.54s.57-.81.57-1.29v-25.55h27.32c.52,0,1.02-.19,1.38-.54.36-.33.57-.8.57-1.29v-23.74Z"/></svg>