<?xml version="1.0" encoding="utf-8"?>
<!-- Generator: Adobe Illustrator 26.5.0, SVG Export Plug-In . SVG Version: 6.00 Build 0)  -->
<svg version="1.1" id="图层_1" xmlns:serif="http://www.serif.com/"
	 xmlns="http://www.w3.org/2000/svg" xmlns:xlink="http://www.w3.org/1999/xlink" x="0px" y="0px" viewBox="0 0 32 32"
	 style="enable-background:new 0 0 32 32;" xml:space="preserve">
<style type="text/css">
	.st0{fill-rule:evenodd;clip-rule:evenodd;fill:#FFDD57;}
</style>
<g transform="matrix(1,0,0,1,-4117.34,-5181.13)">
	<g transform="matrix(0.354876,0,0,0.354876,1182.69,6816.54)">
		<g transform="matrix(3.14482,0,0,3.14482,-4529.1,-401.532)">
			<g transform="matrix(0.997997,0,0,0.994393,648.778,82.8487)">
				<path class="st0" d="M3445.3-1416.8c1.3-0.9,1.6-1.5,1.6-1.5c0,0-0.1,0.4-0.5,0.8c-1.2,1.4-3.8,2.1-3.8,2.1c0,0,0.5-0.6,0.5-0.6
					C3443.2-1416,3444.4-1416.2,3445.3-1416.8z"/>
			</g>
			<g transform="matrix(1,0,0,1,641.547,90.0349)">
				<path class="st0" d="M3447.3-1417.5c0,0,0.7,7.1-4.6,8.2c-5.2,1-4.5-6.8-0.1-7.3c1-0.1,1.4,1,0.9,1.5c-0.9,0.8-2.9,3.3-0.5,3.7
					C3446.7-1411,3447.3-1417.5,3447.3-1417.5z"/>
			</g>
		</g>
		<path class="st0" d="M8335.3-4550.2c-4.2,6.1-11.2,10.1-19.2,10.1c-12.8,0-23.3-10.4-23.3-23.3c0-12.8,10.4-23.3,23.3-23.3
			c8,0,15,4,19.2,10.1l3,4.3l8.7-6l-3-4.3c-6.1-8.9-16.3-14.7-27.9-14.7c-18.7,0-33.8,15.1-33.8,33.8s15.1,33.8,33.8,33.8
			c11.6,0,21.8-5.8,27.9-14.7l3-4.3l-8.7-6L8335.3-4550.2z"/>
	</g>
</g>
</svg>
