<svg width="45" height="45" viewBox="0 0 45 45" fill="none" xmlns="http://www.w3.org/2000/svg">
<path d="M22.6862 6.63408C23.6897 6.63408 24.5032 5.82056 24.5032 4.81704C24.5032 3.81352 23.6897 3 22.6862 3C21.6827 3 20.8691 3.81352 20.8691 4.81704C20.8691 5.82056 21.6827 6.63408 22.6862 6.63408Z" fill="#6CB7E6"/>
<path d="M17.1331 32.0724L11.3932 28.8781V15.7812L18.5747 12.0161V38.5742L7.43704 31.757C7.43704 31.757 6.70845 31.3771 6.70845 30.3797V14.4351C6.70845 14.4351 6.58183 13.4866 7.56366 12.9335C8.54548 12.3804 21.0404 5.07227 21.0404 5.07227L21.5002 6.19181C21.5002 6.19181 9.57839 13.0957 8.62767 13.711C8.23227 13.9664 7.92795 14.1797 7.92795 14.8172C7.92795 15.4547 7.92795 26.9545 7.92795 29.7933C7.92795 30.3509 7.97682 30.5486 8.43219 30.9462C8.85424 31.3105 17.1309 36.3395 17.1309 36.3395L17.1353 32.0724H17.1331Z" fill="#6CB7E6"/>
<path d="M22.3913 41.9998C23.3948 41.9998 24.2083 41.1863 24.2083 40.1828C24.2083 39.1792 23.3948 38.3657 22.3913 38.3657C21.3877 38.3657 20.5742 39.1792 20.5742 40.1828C20.5742 41.1863 21.3877 41.9998 22.3913 41.9998Z" fill="#6CB7E6"/>
<path d="M27.9413 12.9271L33.6834 16.1213V29.2182L26.5019 32.9834V6.42529L37.6374 13.2425C37.6374 13.2425 38.366 13.6224 38.366 14.6197V30.5644C38.366 30.5644 38.4926 31.5129 37.5108 32.066C36.5312 32.6191 24.034 39.9272 24.034 39.9272L23.5742 38.8077C23.5742 38.8077 35.496 31.9038 36.4468 31.2885C36.8422 31.0331 37.1465 30.8198 37.1465 30.1823C37.1465 29.5448 37.1465 18.045 37.1465 15.2062C37.1465 14.6486 37.0976 14.4509 36.6422 14.0533C36.2202 13.689 27.9436 8.65994 27.9436 8.65994L27.9391 12.9271H27.9413Z" fill="#6CB7E6"/>
<path d="M26.5007 32.9831L18.5684 24.0223V12.0161L26.5007 20.9902V32.9831Z" fill="#147ABF"/>
</svg>
