<svg width="45" height="45" viewBox="0 0 45 45" fill="none" xmlns="http://www.w3.org/2000/svg">
<path d="M36.3225 18.2853H34.6485C34.5117 18.2853 34.411 18.2545 34.3462 18.1932C34.2886 18.1241 34.2598 18.0167 34.2598 17.871V10.4143C34.2598 10.2685 34.2886 10.1649 34.3462 10.1036C34.411 10.0345 34.5117 10 34.6485 10H37.9533C38.9325 10 39.6021 10.2071 39.9621 10.6214C40.3221 11.0357 40.5021 11.5765 40.5021 12.2439V13.7169C40.5021 14.3843 40.3221 14.9251 39.9621 15.3394C39.6021 15.7536 38.9325 15.9608 37.9533 15.9608C37.2674 15.9608 36.7113 16.5168 36.7113 17.2027V17.871C36.7113 18.0167 36.6789 18.1241 36.6141 18.1932C36.5566 18.2545 36.4593 18.2853 36.3225 18.2853ZM37.5586 12.1519C37.0787 12.1519 36.6897 12.5408 36.6897 13.0207C36.6897 13.5005 37.0787 13.8895 37.5586 13.8895H37.6618C37.8705 13.8895 38.0073 13.8319 38.0721 13.7169C38.1369 13.6018 38.1694 13.4714 38.1694 13.3256V12.7157C38.1694 12.57 38.1369 12.4395 38.0721 12.3245C38.0073 12.2094 37.8705 12.1519 37.6618 12.1519H37.5586Z" fill="#3B3B3B"/>
<path d="M27.843 18.2853C27.7045 18.2853 27.6023 18.2545 27.5367 18.1932C27.4784 18.1241 27.4492 18.0167 27.4492 17.871V16.5016C27.4492 16.3559 27.4784 16.2523 27.5367 16.1909C27.6023 16.1219 27.7045 16.0874 27.843 16.0874C28.4412 16.0874 28.926 15.6025 28.926 15.0044V13.3039C28.926 12.7058 28.4412 12.2209 27.843 12.2209C27.7045 12.2209 27.6023 12.1902 27.5367 12.1288C27.4784 12.0598 27.4492 11.9524 27.4492 11.8066V10.4143C27.4492 10.2685 27.4784 10.1649 27.5367 10.1036C27.6023 10.0345 27.7045 10 27.843 10H32.5032C32.6417 10 32.7402 10.0345 32.7986 10.1036C32.8642 10.1649 32.897 10.2685 32.897 10.4143V11.8066C32.897 11.9524 32.8642 12.0598 32.7986 12.1288C32.7402 12.1902 32.6417 12.2209 32.5032 12.2209C31.9172 12.2209 31.4421 12.696 31.4421 13.282V15.0262C31.4421 15.6123 31.9172 16.0874 32.5032 16.0874C32.6417 16.0874 32.7402 16.1219 32.7986 16.1909C32.8642 16.2523 32.897 16.3559 32.897 16.5016V17.871C32.897 18.0167 32.8642 18.1241 32.7986 18.1932C32.7402 18.2545 32.6417 18.2853 32.5032 18.2853H27.843Z" fill="#3B3B3B"/>
<path d="M24.1803 18.2853H22.4335C22.2969 18.2853 22.1963 18.2545 22.1316 18.1932C22.0741 18.1241 22.0454 18.0167 22.0454 17.871V13.8059C22.0454 12.9305 21.3357 12.2209 20.4604 12.2209C20.3238 12.2209 20.2232 12.1902 20.1585 12.1288C20.101 12.0598 20.0723 11.9524 20.0723 11.8066V10.4143C20.0723 10.2685 20.101 10.1649 20.1585 10.1036C20.2232 10.0345 20.3238 10 20.4604 10H26.1534C26.29 10 26.387 10.0345 26.4445 10.1036C26.5092 10.1649 26.5415 10.2685 26.5415 10.4143V11.8066C26.5415 11.9524 26.5092 12.0598 26.4445 12.1288C26.387 12.1902 26.29 12.2209 26.1534 12.2209C25.2781 12.2209 24.5684 12.9305 24.5684 13.8059V17.871C24.5684 18.0167 24.5361 18.1241 24.4713 18.1932C24.4139 18.2545 24.3169 18.2853 24.1803 18.2853Z" fill="#3B3B3B"/>
<path d="M39.6463 34.0001H34.13C32.51 34.0001 31.3047 33.6574 30.5141 32.9721C29.7364 32.2868 29.3477 31.2315 29.3477 29.806V23.3917C29.3477 21.9663 29.7364 20.911 30.5141 20.2256C31.3047 19.5404 32.51 19.1978 34.13 19.1978H39.8002C40.0465 19.1978 40.2214 19.2594 40.3251 19.3828C40.4417 19.4924 40.5001 19.6774 40.5001 19.9379V22.4254C40.5001 22.6858 40.4417 22.8778 40.3251 23.0011C40.2214 23.1108 40.0465 23.1655 39.8002 23.1655H34.9465C34.5447 23.1655 34.2467 23.2547 34.0523 23.4329C33.8578 23.5973 33.7606 23.8509 33.7606 24.1935V29.1071C33.7606 29.4497 33.832 29.7033 33.9745 29.8677C34.13 30.0322 34.3568 30.1144 34.6549 30.1144C35.6964 30.1144 36.5407 29.2701 36.5407 28.2287V26.9072C36.5407 26.6468 36.5925 26.4618 36.6962 26.3522C36.8129 26.2288 36.9943 26.1671 37.2405 26.1671H39.6463C39.8925 26.1671 40.0675 26.2288 40.1712 26.3522C40.2879 26.4618 40.3462 26.6468 40.3462 26.9072V33.26C40.3462 33.5204 40.2879 33.7122 40.1712 33.8356C40.0675 33.9452 39.8925 34.0001 39.6463 34.0001Z" fill="url(#paint0_linear_7647_225)"/>
<path d="M21.2715 23.5151L20.787 25.1896C20.5771 25.9155 21.1218 26.64 21.8773 26.64C22.633 26.64 23.1776 25.9155 22.9676 25.1896L22.4832 23.5151C22.4319 23.3917 22.3742 23.3026 22.3101 23.2478C22.2588 23.193 22.1947 23.1655 22.1178 23.1655H21.6369C21.56 23.1655 21.4895 23.193 21.4254 23.2478C21.374 23.3026 21.3227 23.3917 21.2715 23.5151ZM20.1752 33.26C20.1752 33.5204 20.1175 33.7122 20.002 33.8356C19.8994 33.9452 19.7263 34.0001 19.4827 34.0001H16.6554C16.4117 34.0001 16.2322 33.9452 16.1168 33.8356C16.0142 33.7122 15.9629 33.5204 15.9629 33.26V27.8324C15.9629 27.4213 16.0206 26.9484 16.136 26.4138C16.2642 25.8793 16.4566 25.2557 16.7131 24.543L18.3864 19.8762C18.4633 19.6432 18.5787 19.4718 18.7326 19.3622C18.8993 19.2525 19.1108 19.1978 19.3673 19.1978H24.5412C24.7849 19.1978 24.9836 19.2525 25.1375 19.3622C25.3042 19.4718 25.426 19.6432 25.5029 19.8762L27.1763 24.543C27.4328 25.2557 27.6187 25.8793 27.7341 26.4138C27.8623 26.9484 27.9264 27.4213 27.9264 27.8324V33.26C27.9264 33.5204 27.8687 33.7122 27.7533 33.8356C27.6507 33.9452 27.4776 34.0001 27.234 34.0001H24.3297C24.0732 34.0001 23.8808 33.9452 23.7527 33.8356C23.6373 33.7122 23.5796 33.5204 23.5796 33.26V32.0839C23.5796 31.1438 22.8174 30.3817 21.8773 30.3817C20.9372 30.3817 20.1752 31.1438 20.1752 32.0839V33.26Z" fill="url(#paint1_linear_7647_225)"/>
<path d="M11.3393 34.0001H8.21866C7.97466 34.0001 7.79487 33.9452 7.67929 33.8356C7.57655 33.7122 7.52518 33.5204 7.52518 33.26V25.9973C7.52518 24.4334 6.25739 23.1655 4.69348 23.1655C4.44948 23.1655 4.26968 23.1108 4.15411 23.0011C4.05137 22.8778 4 22.6858 4 22.4254V19.9379C4 19.6774 4.05137 19.4924 4.15411 19.3828C4.26968 19.2594 4.44948 19.1978 4.69348 19.1978H14.8645C15.1085 19.1978 15.2819 19.2594 15.3846 19.3828C15.5002 19.4924 15.558 19.6774 15.558 19.9379V22.4254C15.558 22.6858 15.5002 22.8778 15.3846 23.0011C15.2819 23.1108 15.1085 23.1655 14.8645 23.1655C13.3006 23.1655 12.0328 24.4334 12.0328 25.9972V33.26C12.0328 33.5204 11.975 33.7122 11.8594 33.8356C11.7567 33.9452 11.5833 34.0001 11.3393 34.0001Z" fill="url(#paint2_linear_7647_225)"/>
<defs>
<linearGradient id="paint0_linear_7647_225" x1="40.5001" y1="15.5683" x2="24.5435" y2="33.7748" gradientUnits="userSpaceOnUse">
<stop stop-color="#FEB14C"/>
<stop offset="1" stop-color="#FE2C1A"/>
</linearGradient>
<linearGradient id="paint1_linear_7647_225" x1="27.9264" y1="15.5683" x2="12.1541" y2="34.8735" gradientUnits="userSpaceOnUse">
<stop stop-color="#FEB14C"/>
<stop offset="1" stop-color="#FE2C1A"/>
</linearGradient>
<linearGradient id="paint2_linear_7647_225" x1="15.558" y1="15.5683" x2="-0.314112" y2="34.337" gradientUnits="userSpaceOnUse">
<stop stop-color="#FEB14C"/>
<stop offset="1" stop-color="#FE2C1A"/>
</linearGradient>
</defs>
</svg>
