<?xml version="1.0" encoding="UTF-8"?>
<svg width="32px" height="32px" viewBox="0 0 32 32" version="1.1" xmlns="http://www.w3.org/2000/svg" xmlns:xlink="http://www.w3.org/1999/xlink">
    <title>telegram</title>
    <g id="页面-1" stroke="none" stroke-width="1" fill="none" fill-rule="evenodd">
        <g id="Medium" transform="translate(-1327.000000, -5651.000000)" fill-rule="nonzero">
            <g id="编组-18" transform="translate(1275.000000, 5651.000000)">
                <g id="telegram" transform="translate(52.000000, 0.000000)">
                    <rect id="矩形" fill="#000000" opacity="0" x="0" y="0" width="32" height="32"></rect>
                    <path d="M28.5066562,4.81334375 C28.0230327,4.31240226 27.3626549,4.02049241 26.6666562,4 C26.3091943,4.0006903 25.9555197,4.07324249 25.6266562,4.21334375 L3.49334375,13.8 C2.95780103,14.0181562 2.62392729,14.5566529 2.66665625,15.1333438 L2.66665625,16 C2.63723905,16.6011508 3.01420331,17.1474801 3.58665625,17.3333438 L9.33334375,19.2533437 L11.0666562,25.1066563 C11.3040004,25.9425056 11.9791289,26.5818398 12.8266562,26.7733438 C12.986052,26.7930096 13.1472605,26.7930096 13.3066562,26.7733438 C13.898039,26.7712977 14.4660458,26.5421887 14.8933437,26.1333438 L17.0133437,24.1333438 L21.12,27.3733438 C21.9243956,28.0013999 23.016696,28.1152806 23.9333437,27.6666562 L24.3733437,27.44 C25.1359536,27.0479053 25.6729981,26.3236238 25.8266562,25.48 L29.3333437,7.34665625 C29.5005378,6.41698374 29.1900282,5.46545389 28.5066562,4.81334375 L28.5066562,4.81334375 Z M23.8666562,25.16 C23.8226204,25.3932324 23.6756315,25.5941135 23.4666562,25.7066562 L23.0266562,25.9333437 C22.9399312,25.9774573 22.8439555,26.0003051 22.7466562,26.000003 C22.6046799,25.9973478 22.4680225,25.9455145 22.36,25.8533437 L17.3466562,21.8533437 C17.0993422,21.6341694 16.7273141,21.6341694 16.48,21.8533437 L13.52,24.64 C13.4655944,24.6799111 13.4007237,24.7030769 13.3333437,24.7066562 L13.3333437,20 C13.3336817,19.8132365 13.4108201,19.6348329 13.5466562,19.5066562 C17.8,15.5066562 20.3466562,13.2666562 21.8666562,11.9866562 C21.9643531,11.897261 22.0220095,11.7723427 22.0266562,11.64 C22.0374828,11.5101537 21.9883828,11.3824777 21.8933437,11.2933437 C21.7595921,11.1253423 21.5284564,11.0703057 21.3333437,11.16 L11.2533437,17.52 C11.0719895,17.6063791 10.8613543,17.6063791 10.68,17.52 L4.66665625,15.4666562 L26.36,6.05334375 C26.4389056,6.03462965 26.5210944,6.03462965 26.6,6.05334375 C26.7951405,6.05845345 26.9790865,6.14558753 27.1066562,6.29334375 C27.2912031,6.4894533 27.3705399,6.76215253 27.32,7.02665625 L23.8666562,25.16 Z" id="形状" fill="#FFFFFF"></path>
                </g>
            </g>
        </g>
    </g>
</svg>