<?xml version="1.0" encoding="UTF-8"?>
<svg width="105px" height="23px" viewBox="0 0 105 23" version="1.1" xmlns="http://www.w3.org/2000/svg" xmlns:xlink="http://www.w3.org/1999/xlink">
    <title>DePINX</title>
    <g id="页面-1" stroke="none" stroke-width="1" fill="none" fill-rule="evenodd">
        <g id="Medium" transform="translate(-554.000000, -825.000000)" fill="#292929" fill-rule="nonzero">
            <g id="编组-9" transform="translate(68.000000, 822.333333)">
                <g id="DePINX" transform="translate(486.000000, 3.466667)">
                    <path d="M60.4833289,13.7403025 C60.3063083,13.5632819 60.2174187,13.3105431 60.2174187,12.982224 L60.2174187,0.226285714 L61.3002304,0.226285714 L61.3002304,13.021876 L68.7808166,13.021876 L68.7808166,14.0062127 L61.2216159,14.0062127 C60.9065371,14.0062127 60.6604185,13.9173921 60.4833289,13.7403025 Z" id="路径"></path>
                    <path d="M78.7255544,9.99011363 L72.5246611,9.99011363 L71.0089178,14.0062127 L69.8869368,14.0062127 L75.142387,0.226285714 L75.6547606,0.226285714 C75.9699083,0.226285714 76.2057519,0.429761492 76.3636706,0.836713737 L81.3439699,14.0062127 L80.2219889,14.0062127 L78.726244,9.99011363 L78.7255544,9.99011363 Z M72.8591176,9.06515163 L78.3910979,9.06515163 L75.6347622,1.68302672 L75.6147637,1.68302672 L72.858428,9.06515163 L72.8591176,9.06515163 Z" id="形状"></path>
                    <path d="M83.1390016,13.7300964 C82.9548781,13.5464556 82.8631612,13.3039919 82.8631612,13.0020845 L82.8631612,0.226285714 L88.5916778,0.226285714 C89.6812476,0.226285714 90.557041,0.49518602 91.2197477,1.03358796 C91.8824544,1.57198715 92.2134629,2.28085573 92.2134629,3.15957997 L92.2134629,4.2814024 C92.2134629,4.81980158 92.0955411,5.31498347 91.8596975,5.76755489 C91.6231643,6.22012632 91.3087062,6.57185048 90.914944,6.8209482 L90.914944,6.84075355 C91.5707546,6.99800329 92.0962307,7.3233571 92.4899929,7.81490479 C92.8837552,8.30707311 93.0802915,8.88151085 93.0802915,9.53752841 L93.0802915,10.6005485 C93.0802915,11.6239166 92.7451454,12.4480589 92.0762323,13.0710446 C91.4066296,13.6947198 90.5142857,14.0062127 89.3992007,14.0062127 L83.8672204,14.0062127 C83.5658647,14.0062127 83.3224355,13.9144268 83.1396912,13.730717 L83.1390016,13.7300964 Z M88.98544,6.58445639 C89.6281483,6.58445639 90.1467283,6.37498315 90.5404906,5.95422302 C90.9342528,5.5346697 91.1314787,4.97645827 91.1314787,4.28080244 L91.1314787,3.15898002 C91.1314787,2.5815632 90.8983935,2.10918643 90.4329128,1.7418497 C89.9667424,1.37451297 89.3529974,1.1908446 88.5916778,1.1908446 L83.945835,1.1908446 L83.945835,6.58445639 L88.98544,6.58445639 Z M89.3005877,13.021876 C90.1143171,13.021876 90.7673693,12.8021691 91.2590549,12.3622036 C91.7514301,11.9228587 91.9976177,11.3352496 91.9976177,10.6005485 L91.9976177,9.53752841 C91.9976177,8.9343343 91.7838414,8.44513126 91.3576679,8.07122953 C90.9308048,7.69725884 90.3701591,7.51003213 89.6743515,7.51003213 L83.945835,7.51003213 L83.945835,13.021876 L89.3005877,13.021876 Z" id="形状"></path>
                    <path d="M95.6807774,13.1202821 C94.9911762,12.4246125 94.6470653,11.4798589 94.6470653,10.2854698 L95.7097406,10.2854698 C95.7097406,11.1779516 95.9586866,11.8832066 96.4579578,12.4018557 C96.9565395,12.9204357 97.631659,13.1791051 98.4853852,13.1791051 L100.69004,13.1791051 C101.516872,13.1791051 102.183026,12.9888441 102.687814,12.6083222 C103.192602,12.2278003 103.446376,11.7295635 103.446376,11.1119567 L103.446376,9.77344095 C103.446376,9.27465246 103.262252,8.84792728 102.895384,8.49374814 C102.527827,8.13963796 102.016143,7.90972494 101.359643,7.80469869 L97.8357809,7.21412428 C96.8910273,7.05682627 96.1531541,6.7153082 95.6207821,6.19071483 C95.0890996,5.66611457 94.8242928,5.00946948 94.8242928,4.22197947 L94.8242928,3.0803517 C94.8242928,2.17461578 95.1649557,1.44654181 95.8476608,0.895536713 C96.5296764,0.344530241 97.4282266,0.0690276938 98.5440013,0.0690276938 L100.768654,0.0690276938 C101.83133,0.0690276938 102.687814,0.390747308 103.337419,1.03358796 C103.987023,1.67702719 104.311825,2.52334707 104.311825,3.57313377 L103.24846,3.57313377 C103.24846,2.81204859 103.022271,2.1986208 102.569203,1.73225045 C102.116825,1.26647316 101.516182,1.03358796 100.767965,1.03358796 L98.5433117,1.03358796 C97.7426847,1.03358796 97.1027349,1.22085605 96.6241517,1.59479915 C96.1448789,1.96873537 95.9055873,2.4645241 95.9055873,3.08095165 L95.9055873,4.22257942 C95.9055873,4.74777275 96.0828148,5.18713831 96.4372698,5.54126918 C96.7924144,5.89540005 97.2903064,6.12529238 97.9337043,6.23032552 L101.437568,6.84075355 C102.409216,7.01124363 103.166398,7.35273411 103.711183,7.86414231 C104.255967,8.37610219 104.52836,9.01294883 104.52836,9.77344095 L104.52836,11.1119567 C104.52836,12.0309192 104.180111,12.7691372 103.484993,13.3267487 C102.789875,13.8849808 101.863741,14.1635107 100.710038,14.1635107 L98.4653867,14.1635107 C97.2972024,14.1635107 96.3689993,13.8159517 95.6800878,13.1202821 L95.6807774,13.1202821 Z" id="路径"></path>
                    <path d="M14.4557637,0.74787932 C13.2895792,0.248492939 11.9612695,0 10.4691106,0 L0,0 L0,18.9958906 C0,19.8740287 0.282705431,20.584111 0.846912938,21.1273098 C1.41112389,21.6716809 2.14279759,21.94297 3.04073411,21.94297 L10.5957213,21.94297 C13.3117843,21.94297 15.3711402,21.2473004 16.7708236,19.8578231 C17.2408557,19.3920665 17.6315837,18.8524536 17.9436972,18.2389844 L14.4557637,0.74787932 Z M14.5446532,13.5416284 C14.5446532,15.046407 14.1995079,16.1856281 13.5104584,16.9587399 C12.8201677,17.7318517 11.8063851,18.1183732 10.4691106,18.1183732 L4.32581271,18.1183732 L4.32581271,3.8246244 L10.3442238,3.8246244 C11.5981255,3.8246244 12.6112875,4.1847617 13.3843993,4.90562934 C14.1575112,5.62650388 14.5440326,6.58265653 14.5440326,7.7740804 L14.5440326,13.5416284 L14.5446532,13.5416284 Z" id="形状"></path>
                    <polygon id="路径" points="57.2229637 3.7610018 57.2229637 0 44.3679712 0 44.2989421 0.345128814 40.7972165 17.7648147 40.7972165 21.94297 45.1224638 21.94297 45.1224638 13.4168106 56.0627098 13.4168106 56.0627098 9.65462268 45.1224638 9.65462268 45.1224638 3.7610018 57.2223431 3.7610018"></polygon>
                    <path d="M42.580525,0 L40.7972855,8.87371836 L38.6628321,19.4976444 C38.4953969,20.3331651 38.1862487,20.9508408 37.7373184,21.3475684 C37.2883191,21.7442959 36.6773325,21.9435906 35.9036,21.9435906 L34.0855356,21.9435906 L29.415212,6.89718361 L29.3515618,6.89718361 L24.5870386,21.9435906 L22.7689053,21.9435906 C22.0582713,21.9435906 21.462249,21.7659494 20.9827004,21.4099773 C20.5006692,21.0552465 20.1669712,20.4178481 19.9796756,19.4976444 L18.8681075,13.9240122 L16.4960176,2.02215187 L16.0932215,0.000600223995 L20.48205,0.000600223995 L23.1777008,15.580641 L23.2401097,15.580641 L27.7849949,1.15963326 L29.3521824,1.15963326 C29.8744174,1.15963326 30.3293472,1.2952847 30.7158687,1.56718752 C31.1024591,1.83908346 31.4001599,2.33067252 31.6096607,3.04013416 L35.4342575,15.5476091 L35.4966664,15.5476091 L38.1923172,0 L42.5811457,0 L42.580525,0 Z" id="路径"></path>
                    <path d="M70.6365332,16.3687172 C71.6509364,16.3687172 72.5563827,16.652626 73.3259776,17.2120304 C73.9011049,17.6304114 74.331416,18.1514051 74.7106967,18.6117828 C75.0168796,18.9820986 75.3334065,19.3656547 75.6526918,19.5972917 C75.8519865,19.7419701 76.0492124,19.8380315 76.3643602,19.8380315 C76.6801975,19.8380315 76.878113,19.7413494 77.0767181,19.5967401 C77.3960034,19.3644134 77.7118408,18.9814779 78.0180237,18.6111621 C78.3973043,18.1514051 78.828305,17.6304114 79.4034323,17.2114098 C80.1737168,16.6520053 81.0784735,16.3680965 82.0928767,16.3680965 C83.10728,16.3680965 84.0120367,16.6520053 84.7816315,17.2114098 C85.3574485,17.6297908 85.7877596,18.1507844 86.1670402,18.6111621 C86.4732231,18.9814779 86.7890604,19.3644134 87.1083457,19.5967401 C87.3076405,19.7413494 87.5048664,19.8380315 87.8207037,19.8380315 C88.136541,19.8380315 88.3337669,19.7413494 88.5323721,19.5967401 C88.852347,19.3644134 89.1681843,18.9814779 89.4743672,18.6111621 C89.8543374,18.1514051 90.2846485,17.6297908 90.8597759,17.2120304 C91.6293707,16.652626 92.5341274,16.3687172 93.5485307,16.3687172 C94.5629339,16.3687172 95.4676906,16.652626 96.2372855,17.2120304 C96.8131024,17.6304114 97.2434135,18.1514051 97.6226941,18.6117828 C97.9281874,18.9820986 98.2447144,19.3650341 98.5646893,19.5972917 C98.763984,19.7419701 98.9612099,19.8385832 99.2770473,19.8385832 C99.5928846,19.8385832 99.7901105,19.7419701 99.9894052,19.5972917 C100.30938,19.3650341 100.625217,18.9820986 100.9314,18.6117828 C101.311371,18.1519567 101.741682,17.6304114 102.316809,17.2120304 C102.90366,16.7858569 103.568435,16.519395 104.300791,16.4167134 L104.300791,18.7659776 C104.300791,18.7659776 104.295964,18.7696325 104.293895,18.7714254 C103.973921,19.0036831 103.658083,19.3866186 103.3519,19.7570034 C102.97193,20.2167604 102.541619,20.7383747 101.966492,21.1566868 C101.196207,21.7160912 100.29214,22 99.2777369,22 C98.2633336,22 97.3578873,21.7160912 96.5882925,21.1566868 C96.0131651,20.7383747 95.5835436,20.2173811 95.2035734,19.7575551 C94.8973905,19.3866186 94.5808636,19.0036831 94.2615782,18.7714254 C94.0629731,18.6267471 93.8650576,18.530134 93.5499099,18.530134 C93.2340726,18.530134 93.036157,18.6267471 92.8375519,18.7714254 C92.5182666,19.0036831 92.2024293,19.3866186 91.896936,19.7570034 C91.5169658,20.2173811 91.0866547,20.7383747 90.5108377,21.1566868 C89.7405532,21.7160912 88.8357966,22 87.8213933,22 C86.8076796,22 85.902923,21.7160912 85.1326385,21.1566868 C84.5568216,20.7383747 84.1265105,20.2173811 83.7472298,19.7570034 C83.4417365,19.3866186 83.1258992,19.0036831 82.8059243,18.7714254 C82.6066296,18.6267471 82.4094037,18.530134 82.0935663,18.530134 C81.777729,18.530134 81.5805031,18.6267471 81.381898,18.7714254 C81.061923,19.0036831 80.7460857,19.3866186 80.4399028,19.7570034 C80.0599326,20.2167604 79.6296215,20.7383747 79.0551838,21.1560661 C78.2848993,21.7155395 77.3801426,21.9994483 76.3657394,21.9994483 C75.3513361,21.9994483 74.447269,21.7155395 73.6769846,21.1560661 C73.1011676,20.7377541 72.6708565,20.2167604 72.2915759,19.7563827 C71.9860826,19.3860669 71.6695557,19.0031314 71.3495808,18.7708048 C71.150286,18.6261265 70.9537497,18.5295134 70.6379124,18.5295134 C70.3220751,18.5295134 70.1248491,18.6261265 69.926244,18.7708048 C69.6069587,19.0031314 69.2911214,19.3854463 68.9849385,19.7557621 C68.6043476,20.2167604 68.1739676,20.7377541 67.5989781,21.1560661 C66.8289006,21.7155395 65.9243508,21.9994483 64.9100165,21.9994483 C63.8956132,21.9994483 62.9910634,21.7155395 62.2209858,21.1560661 C61.6453758,20.7377541 61.2149957,20.2167604 60.8356461,19.7570034 C60.5295322,19.3866186 60.2138328,19.0036831 59.8939268,18.7714254 C59.8915132,18.7696325 59.8890996,18.7678395 59.886686,18.7659776 L59.886686,16.4167134 C60.6189734,16.519395 61.2840248,16.7852363 61.8710822,17.2120304 C62.4466923,17.6304114 62.8770034,18.1514051 63.256353,18.6117828 C63.5618463,18.9820986 63.8781663,19.3650341 64.1981412,19.5972917 C64.397367,19.7419701 64.5942481,19.8380315 64.9100165,19.8380315 C65.2257159,19.8380315 65.4231487,19.7413494 65.6218227,19.5972917 C65.941177,19.3650341 66.2574971,18.9820986 66.5629904,18.6117828 C66.9429606,18.1514051 67.3732717,17.6304114 67.9488817,17.2120304 C68.7190283,16.652626 69.6235091,16.3687172 70.6379124,16.3687172 L70.6365332,16.3687172 Z" id="路径"></path>
                </g>
            </g>
        </g>
    </g>
</svg>