<?xml version="1.0" encoding="UTF-8"?>
<svg id="_图层_1" data-name="图层_1" xmlns="http://www.w3.org/2000/svg" version="1.1" viewBox="0 0 1225.6 397.9">
  <!-- Generator: Adobe Illustrator 29.1.0, SVG Export Plug-In . SVG Version: 2.1.0 Build 142)  -->
  <path d="M50.6,156.8h-15.7v35H15.2v-95.6h35.5c11.3,0,20,2.5,26.1,7.5,6.1,5,9.2,12.1,9.2,21.4s-1.4,11.9-4.2,16.3c-2.8,4.4-7.1,7.8-12.8,10.4l20.7,39.1v.9h-21.1l-18-35ZM34.9,140.9h15.8c4.9,0,8.8-1.3,11.5-3.8,2.7-2.5,4.1-6,4.1-10.4s-1.3-8-3.8-10.6c-2.6-2.6-6.5-3.9-11.7-3.9h-15.8v28.6Z"/>
  <path d="M132.3,193.1c-10.4,0-18.9-3.2-25.4-9.6-6.6-6.4-9.8-14.9-9.8-25.5v-1.8c0-7.1,1.4-13.5,4.1-19.1,2.7-5.6,6.6-10,11.7-13,5.1-3,10.8-4.6,17.4-4.6,9.7,0,17.3,3.1,22.9,9.2,5.6,6.1,8.4,14.8,8.4,26.1v7.8h-45.1c.6,4.7,2.5,8.4,5.5,11.2,3.1,2.8,7,4.2,11.6,4.2,7.3,0,13-2.6,17.2-7.9l9.4,10.4c-2.8,4-6.7,7.2-11.5,9.4s-10.3,3.4-16.2,3.4ZM130.1,134.8c-3.8,0-6.8,1.3-9.1,3.8-2.3,2.6-3.8,6.2-4.5,11h26.4v-1.6c0-4.2-1.2-7.5-3.4-9.8-2.2-2.3-5.3-3.4-9.4-3.4Z"/>
  <path d="M198.1,168.6l13.2-47.8h19.8l-24,71h-18.1l-24-71h19.9l13.2,47.8Z"/>
  <path d="M235.4,155.7c0-7,1.4-13.3,4.1-18.8,2.7-5.5,6.6-9.8,11.7-12.8,5.1-3,11-4.6,17.8-4.6,9.6,0,17.4,2.9,23.5,8.8,6.1,5.9,9.5,13.8,10.2,24v4.8c.1,10.9-2.9,19.7-9,26.3-6.1,6.6-14.3,9.9-24.5,9.9s-18.4-3.3-24.5-9.8c-6.1-6.6-9.2-15.5-9.2-26.9v-.8ZM254.4,157c0,6.8,1.3,11.9,3.8,15.5,2.5,3.6,6.1,5.3,10.9,5.3s8.2-1.8,10.8-5.3c2.6-3.5,3.9-9.2,3.9-16.9s-1.3-11.7-3.9-15.4c-2.6-3.7-6.2-5.5-10.9-5.5s-8.2,1.8-10.8,5.4c-2.5,3.6-3.8,9.2-3.8,16.8Z"/>
  <path d="M334.3,191.8h-19v-100.8h19v100.8Z"/>
  <path d="M392.5,184.6c-4.7,5.7-11.2,8.6-19.5,8.6s-13.5-2.2-17.4-6.6c-4-4.4-6-10.8-6.1-19.3v-46.5h18.9v45.8c0,7.4,3.4,11.1,10.2,11.2,6.4,0,10.9-2.2,13.3-6.7v-50.3h19v71h-17.8l-.5-7.3Z"/>
  <path d="M447.7,103.4v17.4h12.1v13.9h-12.1v35.5c0,2.6.5,4.5,1.5,5.7,1,1.1,3,1.7,5.9,1.7s4-.2,5.5-.5v14.4c-3.7,1.1-7.5,1.7-11.5,1.7-13.3,0-20.1-6.7-20.3-20.2v-38.3h-10.4v-13.9h10.4v-17.4h18.9Z"/>
  <path d="M470.1,102.5c0-2.8.9-5.2,2.8-7.1,1.9-1.9,4.5-2.8,7.9-2.8s5.8.9,7.7,2.8c1.9,1.8,2.8,4.2,2.8,7.1s-1,5.3-2.9,7.1c-1.9,1.8-4.5,2.7-7.7,2.7s-5.8-.9-7.7-2.7c-1.9-1.8-2.9-4.2-2.9-7.1ZM490.3,191.8h-19v-71h19v71Z"/>
  <path d="M503,155.7c0-7,1.4-13.3,4.1-18.8,2.7-5.5,6.6-9.8,11.7-12.8,5.1-3,11-4.6,17.8-4.6,9.6,0,17.4,2.9,23.5,8.8,6.1,5.9,9.5,13.8,10.2,24v4.8c.1,10.9-2.9,19.7-9,26.3-6.1,6.6-14.3,9.9-24.5,9.9s-18.4-3.3-24.5-9.8c-6.1-6.6-9.2-15.5-9.2-26.9v-.8ZM522,157c0,6.8,1.3,11.9,3.8,15.5,2.5,3.6,6.1,5.3,10.9,5.3s8.2-1.8,10.8-5.3c2.6-3.5,3.9-9.2,3.9-16.9s-1.3-11.7-3.9-15.4c-2.6-3.7-6.2-5.5-10.9-5.5s-8.2,1.8-10.8,5.4c-2.5,3.6-3.8,9.2-3.8,16.8Z"/>
  <path d="M599.3,120.8l.5,8.2c5.1-6.3,11.9-9.5,20.5-9.5s13.2,2.2,16.8,6.6c3.7,4.4,5.5,11,5.6,19.8v45.9h-19v-45.4c0-4-.9-7-2.6-8.8-1.8-1.8-4.7-2.7-8.7-2.7s-9.4,2.2-12,6.7v50.2h-19v-71h18Z"/>
  <path d="M656.9,102.5c0-2.8.9-5.2,2.8-7.1,1.9-1.9,4.5-2.8,7.9-2.8s5.8.9,7.7,2.8c1.9,1.8,2.8,4.2,2.8,7.1s-1,5.3-2.9,7.1c-1.9,1.8-4.5,2.7-7.7,2.7s-5.8-.9-7.7-2.7c-1.9-1.8-2.9-4.2-2.9-7.1ZM677.1,191.8h-19v-71h19v71Z"/>
  <path d="M714.4,176.5h34.7v15.3h-58.9v-11.6l33.4-44.1h-32.5v-15.3h57v11.2l-33.8,44.5Z"/>
  <path d="M793.8,193.1c-10.4,0-18.9-3.2-25.4-9.6-6.6-6.4-9.8-14.9-9.8-25.5v-1.8c0-7.1,1.4-13.5,4.1-19.1,2.7-5.6,6.6-10,11.7-13,5.1-3,10.8-4.6,17.4-4.6,9.7,0,17.3,3.1,22.9,9.2,5.6,6.1,8.4,14.8,8.4,26.1v7.8h-45.1c.6,4.7,2.5,8.4,5.5,11.2,3.1,2.8,7,4.2,11.6,4.2,7.3,0,13-2.6,17.2-7.9l9.4,10.4c-2.8,4-6.7,7.2-11.5,9.4s-10.3,3.4-16.2,3.4ZM791.5,134.8c-3.8,0-6.8,1.3-9.1,3.8-2.3,2.6-3.8,6.2-4.5,11h26.4v-1.6c0-4.2-1.2-7.5-3.4-9.8-2.2-2.3-5.3-3.4-9.4-3.4Z"/>
  <g>
    <path d="M962.1,159.6h-56.7l-10.8,32.2h-34.4l58.4-156.7h29.9l58.6,156.7h-34.2l-10.8-32.2ZM914,133.4h39.2l-19.7-58.6-19.5,58.6Z"/>
    <path d="M1056,191.8h-32.2V35.1h32.2v156.7Z"/>
  </g>
  <path d="M237.5,369.9v-95.6h29.3c8.4,0,16,1.9,22.6,5.7,6.6,3.8,11.8,9.2,15.5,16.2,3.7,7,5.5,14.9,5.5,23.7v4.5c0,8.9-1.8,16.8-5.5,23.7-3.7,6.9-8.8,12.3-15.4,16.1-6.6,3.8-14.1,5.7-22.5,5.7h-29.6ZM257.1,290.3v63.8h9.5c7.7,0,13.6-2.5,17.7-7.5,4-5,6.1-12.2,6.2-21.6v-5c0-9.7-2-17-6-22-4-5-9.9-7.5-17.8-7.5h-9.6Z"/>
  <path d="M356.1,371.2c-10.4,0-18.9-3.2-25.4-9.6-6.6-6.4-9.8-14.9-9.8-25.5v-1.8c0-7.1,1.4-13.5,4.1-19.1,2.7-5.6,6.6-10,11.7-13,5.1-3,10.8-4.6,17.4-4.6,9.7,0,17.3,3.1,22.9,9.2,5.6,6.1,8.4,14.8,8.4,26.1v7.8h-45.1c.6,4.7,2.5,8.4,5.5,11.2,3.1,2.8,7,4.2,11.6,4.2,7.3,0,13-2.6,17.2-7.9l9.4,10.4c-2.8,4-6.7,7.2-11.5,9.4s-10.3,3.4-16.2,3.4ZM353.9,312.9c-3.8,0-6.8,1.3-9.1,3.8-2.3,2.6-3.8,6.2-4.5,11h26.4v-1.6c0-4.2-1.2-7.5-3.4-9.8-2.2-2.3-5.3-3.4-9.4-3.4Z"/>
  <path d="M425.6,355.9c3.5,0,6.4-1,8.6-2.9,2.2-1.9,3.3-4.5,3.4-7.7h17.7c0,4.8-1.3,9.3-3.9,13.3-2.6,4-6.1,7.1-10.6,9.3-4.5,2.2-9.4,3.3-14.8,3.3-10.1,0-18.1-3.2-24-9.7-5.9-6.5-8.8-15.4-8.8-26.7v-1.3c0-10.9,2.9-19.6,8.7-26.1,5.8-6.5,13.8-9.8,24-9.8s16,2.5,21.3,7.6c5.3,5.1,8,11.8,8.1,20.1h-17.7c0-3.7-1.2-6.7-3.4-9-2.2-2.3-5.1-3.4-8.7-3.4s-7.7,1.6-10,4.8c-2.2,3.2-3.4,8.4-3.4,15.6v2c0,7.3,1.1,12.6,3.3,15.8,2.2,3.2,5.6,4.8,10.2,4.8Z"/>
  <path d="M498.7,371.2c-10.4,0-18.9-3.2-25.4-9.6-6.6-6.4-9.8-14.9-9.8-25.5v-1.8c0-7.1,1.4-13.5,4.1-19.1,2.7-5.6,6.6-10,11.7-13,5.1-3,10.8-4.6,17.4-4.6,9.7,0,17.3,3.1,22.9,9.2,5.6,6.1,8.4,14.8,8.4,26.1v7.8h-45.1c.6,4.7,2.5,8.4,5.5,11.2,3.1,2.8,7,4.2,11.6,4.2,7.3,0,13-2.6,17.2-7.9l9.4,10.4c-2.8,4-6.7,7.2-11.5,9.4s-10.3,3.4-16.2,3.4ZM496.5,312.9c-3.8,0-6.8,1.3-9.1,3.8-2.3,2.6-3.8,6.2-4.5,11h26.4v-1.6c0-4.2-1.2-7.5-3.4-9.8-2.2-2.3-5.3-3.4-9.4-3.4Z"/>
  <path d="M556.1,298.9l.5,8.2c5.1-6.3,11.9-9.5,20.5-9.5s13.2,2.2,16.8,6.6c3.7,4.4,5.5,11,5.6,19.8v45.9h-19v-45.4c0-4-.9-7-2.6-8.8-1.8-1.8-4.7-2.7-8.7-2.7s-9.4,2.2-12,6.7v50.2h-19v-71h18Z"/>
  <path d="M636.5,281.5v17.4h12.1v13.9h-12.1v35.5c0,2.6.5,4.5,1.5,5.7,1,1.1,3,1.7,5.9,1.7s4-.2,5.5-.5v14.4c-3.7,1.1-7.5,1.7-11.5,1.7-13.3,0-20.1-6.7-20.3-20.2v-38.3h-10.4v-13.9h10.4v-17.4h18.9Z"/>
  <path d="M699.1,316.7c-2.6-.4-4.8-.5-6.9-.5-7.2,0-11.9,2.4-14.1,7.3v46.5h-19v-71h18l.5,8.4c3.8-6.5,9.1-9.8,15.8-9.8s4.1.3,5.9.8l-.3,18.3Z"/>
  <path d="M747.2,369.9c-.9-1.7-1.5-3.8-1.8-6.3-4.6,5.1-10.6,7.7-18,7.7s-12.7-2-17.3-6.1c-4.6-4-6.9-9.1-6.9-15.2s2.8-13.4,8.4-17.4c5.6-4,13.7-6,24.2-6.1h8.7v-4.1c0-3.3-.9-5.9-2.6-7.9-1.7-2-4.4-3-8-3s-5.7.8-7.5,2.3c-1.8,1.5-2.7,3.6-2.7,6.3h-19c0-4.1,1.3-7.9,3.8-11.4,2.5-3.5,6.1-6.2,10.8-8.2,4.7-2,9.9-3,15.7-3,8.7,0,15.6,2.2,20.8,6.6,5.1,4.4,7.7,10.6,7.7,18.5v30.9c0,6.8.9,11.9,2.8,15.3v1.1h-19.1ZM731.5,356.7c2.8,0,5.4-.6,7.8-1.8,2.4-1.2,4.1-2.9,5.3-5v-12.3h-7.1c-9.5,0-14.6,3.3-15.2,9.9v1.1c0,2.4.8,4.3,2.4,5.9,1.6,1.5,3.9,2.3,6.8,2.3Z"/>
  <path d="M798.1,369.9h-19v-100.8h19v100.8Z"/>
  <path d="M813.5,280.6c0-2.8.9-5.2,2.8-7.1,1.9-1.9,4.5-2.8,7.9-2.8s5.8.9,7.7,2.8c1.9,1.8,2.8,4.2,2.8,7.1s-1,5.3-2.9,7.1c-1.9,1.8-4.5,2.7-7.7,2.7s-5.8-.9-7.7-2.7c-1.9-1.8-2.9-4.2-2.9-7.1ZM833.7,369.9h-19v-71h19v71Z"/>
  <path d="M871.1,354.6h34.7v15.3h-58.9v-11.6l33.4-44.1h-32.5v-15.3h57v11.2l-33.8,44.5Z"/>
  <path d="M958.8,369.9c-.9-1.7-1.5-3.8-1.8-6.3-4.6,5.1-10.6,7.7-18,7.7s-12.7-2-17.3-6.1c-4.6-4-6.9-9.1-6.9-15.2s2.8-13.4,8.4-17.4c5.6-4,13.7-6,24.2-6.1h8.7v-4.1c0-3.3-.9-5.9-2.6-7.9-1.7-2-4.4-3-8-3s-5.7.8-7.5,2.3c-1.8,1.5-2.7,3.6-2.7,6.3h-19c0-4.1,1.3-7.9,3.8-11.4,2.5-3.5,6.1-6.2,10.8-8.2,4.7-2,9.9-3,15.7-3,8.7,0,15.6,2.2,20.8,6.6,5.1,4.4,7.7,10.6,7.7,18.5v30.9c0,6.8.9,11.9,2.8,15.3v1.1h-19.1ZM943.1,356.7c2.8,0,5.4-.6,7.8-1.8,2.4-1.2,4.1-2.9,5.3-5v-12.3h-7.1c-9.5,0-14.6,3.3-15.2,9.9v1.1c0,2.4.8,4.3,2.4,5.9,1.6,1.5,3.9,2.3,6.8,2.3Z"/>
  <path d="M1012.3,281.5v17.4h12.1v13.9h-12.1v35.5c0,2.6.5,4.5,1.5,5.7,1,1.1,3,1.7,5.9,1.7s4-.2,5.5-.5v14.4c-3.7,1.1-7.5,1.7-11.5,1.7-13.3,0-20.1-6.7-20.3-20.2v-38.3h-10.4v-13.9h10.4v-17.4h18.9Z"/>
  <path d="M1034.7,280.6c0-2.8.9-5.2,2.8-7.1,1.9-1.9,4.5-2.8,7.9-2.8s5.8.9,7.7,2.8c1.9,1.8,2.8,4.2,2.8,7.1s-1,5.3-2.9,7.1c-1.9,1.8-4.5,2.7-7.7,2.7s-5.8-.9-7.7-2.7c-1.9-1.8-2.9-4.2-2.9-7.1ZM1054.9,369.9h-19v-71h19v71Z"/>
  <path d="M1067.6,333.7c0-7,1.4-13.3,4.1-18.8,2.7-5.5,6.6-9.8,11.7-12.8,5.1-3,11-4.6,17.8-4.6,9.6,0,17.4,2.9,23.5,8.8,6.1,5.9,9.5,13.8,10.2,24v4.8c.1,10.9-2.9,19.7-9,26.3-6.1,6.6-14.3,9.9-24.5,9.9s-18.4-3.3-24.5-9.8c-6.1-6.6-9.2-15.5-9.2-26.9v-.8ZM1086.6,335.1c0,6.8,1.3,11.9,3.8,15.5,2.5,3.6,6.1,5.3,10.9,5.3s8.2-1.8,10.8-5.3c2.6-3.5,3.9-9.2,3.9-16.9s-1.3-11.7-3.9-15.4c-2.6-3.7-6.2-5.5-10.9-5.5s-8.2,1.8-10.8,5.4c-2.5,3.6-3.8,9.2-3.8,16.8Z"/>
  <path d="M1164,298.9l.5,8.2c5.1-6.3,11.9-9.5,20.5-9.5s13.2,2.2,16.8,6.6c3.7,4.4,5.5,11,5.6,19.8v45.9h-19v-45.4c0-4-.9-7-2.6-8.8-1.8-1.8-4.7-2.7-8.7-2.7s-9.4,2.2-12,6.7v50.2h-19v-71h18Z"/>
  <g>
    <path d="M682.2,244.8l4.3-22.7h6.6l-7.1,31.9h-6.6l-5.2-21.3-5.2,21.3h-6.6l-7.1-31.9h6.6l4.3,22.6,5.2-22.6h5.6l5.2,22.7Z"/>
    <path d="M696.1,224.3c0-.9.3-1.7.9-2.4s1.5-.9,2.6-.9,1.9.3,2.6.9c.6.6.9,1.4.9,2.4s-.3,1.8-1,2.4c-.6.6-1.5.9-2.6.9s-1.9-.3-2.6-.9c-.6-.6-1-1.4-1-2.4ZM702.8,254h-6.3v-23.7h6.3v23.7Z"/>
    <path d="M715.5,224.6v5.8h4v4.6h-4v11.8c0,.9.2,1.5.5,1.9.3.4,1,.6,2,.6s1.3,0,1.8-.2v4.8c-1.2.4-2.5.6-3.8.6-4.4,0-6.7-2.2-6.8-6.7v-12.8h-3.5v-4.6h3.5v-5.8h6.3Z"/>
    <path d="M729.2,233c1.7-2,3.8-3,6.3-3,5.1,0,7.7,3,7.8,8.9v15.2h-6.3v-15c0-1.3-.3-2.3-.9-3-.6-.6-1.6-1-2.9-1s-3.2.7-4,2.2v16.8h-6.3v-33.6h6.3v12.5Z"/>
  </g>
</svg>
