<?xml version="1.0" encoding="UTF-8"?>
<svg width="32px" height="32px" viewBox="0 0 32 32" version="1.1" xmlns="http://www.w3.org/2000/svg" xmlns:xlink="http://www.w3.org/1999/xlink">
    <title>discord</title>
    <g id="页面-1" stroke="none" stroke-width="1" fill="none" fill-rule="evenodd">
        <g id="Medium" transform="translate(-1275.000000, -5651.000000)" fill-rule="nonzero">
            <g id="discord" transform="translate(1275.000000, 5651.000000)">
                <rect id="矩形" fill="#000000" opacity="0" x="0" y="0" width="32" height="32"></rect>
                <path d="M12.656,4.906 L11.875,5 C11.875,5 8.371,5.383 5.812,7.438 L5.782,7.438 L5.75,7.468 C5.176,7.996 4.926,8.645 4.531,9.594 C4.06538164,10.7357619 3.66899644,11.9045472 3.344,13.094 C2.602,15.777 2,19.027 2,22 L2,22.25 L2.125,22.5 C3.051,24.125 4.695,25.16 6.219,25.875 C7.742,26.59 9.059,26.969 9.969,27 L10.563,27.031 L10.875,26.5 L11.969,24.562 C13.129,24.824 14.465,25 16,25 C17.535,25 18.871,24.824 20.031,24.562 L21.125,26.5 L21.438,27.031 L22.031,27 C22.941,26.969 24.258,26.59 25.781,25.875 C27.305,25.16 28.949,24.125 29.875,22.5 L30,22.25 L30,22 C30,19.027 29.398,15.777 28.656,13.094 C28.3310036,11.9045472 27.9346184,10.7357619 27.469,9.594 C27.074,8.644 26.824,7.996 26.25,7.469 L26.219,7.437 L26.187,7.437 C23.63,5.383 20.125,5 20.125,5 L19.344,4.906 L19.062,5.625 C19.062,5.625 18.773,6.355 18.594,7.188 C17.7343001,7.06938545 16.8678191,7.0065873 16,7 C15.465,7 14.54,7.035 13.406,7.188 C13.226,6.355 12.937,5.625 12.937,5.625 L12.656,4.906 Z M11.281,7.188 C11.324,7.328 11.367,7.449 11.406,7.563 C10.113,7.883 8.734,8.371 7.469,9.156 L8.531,10.844 C11.125,9.234 14.851,9 16,9 C17.148,9 20.875,9.234 23.469,10.844 L24.531,9.156 C23.266,8.371 21.887,7.883 20.594,7.562 C20.633,7.449 20.676,7.328 20.719,7.187 C21.652,7.375 23.434,7.805 24.906,8.969 C24.898,8.973 25.281,9.551 25.625,10.375 C25.977,11.223 26.367,12.352 26.719,13.625 C27.395,16.066 27.926,19.039 27.969,21.656 C27.339,22.617 26.172,23.484 24.937,24.063 C24.1624848,24.4289931 23.3430882,24.6912538 22.5,24.843 L22,24 C22.297,23.89 22.59,23.77 22.844,23.656 C24.383,22.98 25.219,22.25 25.219,22.25 L23.906,20.75 C23.906,20.75 23.344,21.266 22.031,21.844 C20.72,22.422 18.715,23 16,23 C13.285,23 11.281,22.422 9.969,21.844 C8.656,21.266 8.094,20.75 8.094,20.75 L6.781,22.25 C6.781,22.25 7.617,22.98 9.156,23.656 C9.43330979,23.7803008 9.71480924,23.8950351 10,24 L9.5,24.844 C8.65647515,24.6917014 7.83673362,24.4287654 7.062,24.062 C5.828,23.484 4.66,22.617 4.032,21.656 C4.074,19.039 4.605,16.066 5.282,13.625 C5.58115084,12.5208258 5.94613707,11.4355511 6.375,10.375 C6.719,9.551 7.102,8.973 7.094,8.969 C8.566,7.805 10.348,7.375 11.281,7.188 Z M12.5,14 C11.727,14 11.043,14.441 10.625,15 C10.207,15.559 10,16.246 10,17 C10,17.754 10.207,18.441 10.625,19 C11.043,19.559 11.727,20 12.5,20 C13.273,20 13.957,19.559 14.375,19 C14.793,18.441 15,17.754 15,17 C15,16.246 14.793,15.559 14.375,15 C13.957,14.441 13.273,14 12.5,14 Z M19.5,14 C18.727,14 18.043,14.441 17.625,15 C17.207,15.559 17,16.246 17,17 C17,17.754 17.207,18.441 17.625,19 C18.043,19.559 18.727,20 19.5,20 C20.273,20 20.957,19.559 21.375,19 C21.793,18.441 22,17.754 22,17 C22,16.246 21.793,15.559 21.375,15 C20.957,14.441 20.273,14 19.5,14 Z M12.5,16 C12.555,16 12.625,16.02 12.75,16.188 C12.875,16.355 13,16.648 13,17 C13,17.352 12.875,17.645 12.75,17.813 C12.625,17.98 12.555,18 12.5,18 C12.445,18 12.375,17.98 12.25,17.812 C12.0846264,17.5737354 11.9972753,17.290019 12,17 C12,16.648 12.125,16.355 12.25,16.187 C12.375,16.02 12.445,16 12.5,16 L12.5,16 Z M19.5,16 C19.555,16 19.625,16.02 19.75,16.188 C19.875,16.355 20,16.648 20,17 C20,17.352 19.875,17.645 19.75,17.813 C19.625,17.98 19.555,18 19.5,18 C19.445,18 19.375,17.98 19.25,17.812 C19.0846264,17.5737354 18.9972753,17.290019 19,17 C19,16.648 19.125,16.355 19.25,16.187 C19.375,16.02 19.445,16 19.5,16 Z" id="形状" fill="#FFFFFF"></path>
            </g>
        </g>
    </g>
</svg>