<?xml version="1.0" encoding="UTF-8"?>
<svg id="_图层_2" data-name="图层 2" xmlns="http://www.w3.org/2000/svg" xmlns:xlink="http://www.w3.org/1999/xlink" viewBox="0 0 225 99">
  <defs>
    <style>
      .cls-1 {
        fill: url(#_未命名的渐变_434);
      }

      .cls-2 {
        fill: #fff;
      }

      .cls-3 {
        fill: none;
        stroke: #1d1d1f;
      }
    </style>
    <linearGradient id="_未命名的渐变_434" data-name="未命名的渐变 434" x1="56.38" y1="32.18" x2="42.15" y2="64.58" gradientUnits="userSpaceOnUse">
      <stop offset="0" stop-color="#00ffbe"/>
      <stop offset=".57" stop-color="#914dff"/>
      <stop offset="1" stop-color="#d43eff"/>
    </linearGradient>
  </defs>
  <g id="_图层_1-2" data-name="图层 1">
    <g>
      <rect class="cls-2" x=".5" y=".5" width="224" height="98" rx="7.5" ry="7.5"/>
      <rect class="cls-3" x=".5" y=".5" width="224" height="98" rx="7.5" ry="7.5"/>
      <g>
        <g>
          <path d="M89.94,45.88c-.74-.46-1.59-.68-2.55-.68s-1.89.21-2.69.63c-.35.19-.67.41-.95.67v-1.03h-4.09v13h4.09v-7.41c0-.45.1-.84.29-1.19.2-.35.46-.62.8-.8.34-.19.73-.28,1.18-.28.64,0,1.17.21,1.59.63.42.42.63.97.63,1.64v7.41h4.09v-8.32c0-.89-.21-1.71-.64-2.46s-1.01-1.35-1.75-1.81Z"/>
          <path d="M103.96,46.55c-.35-.33-.75-.62-1.22-.84-.7-.34-1.49-.51-2.37-.51-1.19,0-2.26.29-3.2.88-.94.59-1.68,1.39-2.22,2.41-.54,1.02-.82,2.18-.82,3.48s.27,2.46.82,3.48c.54,1.02,1.28,1.82,2.22,2.41.94.59,2,.88,3.2.88.87,0,1.67-.17,2.38-.51.46-.22.86-.5,1.2-.82v1.07h4.01v-13h-4.01v1.08ZM101.21,55.04c-.55,0-1.05-.13-1.5-.4-.45-.27-.79-.63-1.04-1.1-.25-.46-.37-.99-.37-1.58s.13-1.14.39-1.6c.26-.46.61-.82,1.04-1.08.44-.26.94-.39,1.51-.39s1.07.13,1.51.39c.44.26.78.62,1.02,1.08.24.46.36,1,.36,1.6,0,.89-.27,1.63-.8,2.21-.53.58-1.24.87-2.11.87Z"/>
          <rect x="110.86" y="45.47" width="4.09" height="13"/>
          <path d="M112.92,39.18c-.64,0-1.17.21-1.59.64s-.63.96-.63,1.6.21,1.15.63,1.59c.42.44.95.66,1.59.66s1.17-.22,1.58-.66c.41-.44.62-.97.62-1.59s-.2-1.18-.62-1.6-.94-.64-1.58-.64Z"/>
          <path d="M129.34,40.31c-.96-.48-2.04-.72-3.24-.72h-7.89v18.88h4.2v-6.87h3.69c1.19,0,2.27-.25,3.24-.74s1.73-1.19,2.29-2.09c.56-.9.84-1.97.84-3.2s-.28-2.3-.84-3.2c-.56-.9-1.32-1.59-2.29-2.07ZM127.92,47.07c-.25.41-.59.72-1.02.94s-.9.32-1.42.32h-3.08v-5.48h3.08c.52,0,.99.11,1.42.32s.77.53,1.02.94.37.9.37,1.47-.13,1.09-.37,1.5Z"/>
          <path d="M142.39,52.96c0,.68-.18,1.21-.53,1.59-.36.38-.84.58-1.44.58-.43,0-.79-.09-1.1-.27-.3-.18-.53-.43-.68-.75-.15-.32-.23-.7-.23-1.15v-7.49h-4.09v7.54c0,1.12.26,2.12.78,2.98.52.87,1.23,1.54,2.15,2.03.92.49,1.97.74,3.17.74s2.25-.25,3.16-.74,1.62-1.17,2.14-2.03c.52-.86.78-1.87.78-3.01v-7.51h-4.09v7.49Z"/>
          <path d="M167.25,45.83c-.78-.42-1.66-.63-2.66-.63s-1.93.22-2.74.65c-.54.29-1.01.67-1.41,1.12-.37-.47-.82-.86-1.35-1.16-.72-.41-1.54-.61-2.45-.61-.96,0-1.83.2-2.59.6-.34.18-.64.39-.91.63v-.97h-4.09v13h4.09v-7.6c0-.45.09-.82.28-1.12.19-.3.44-.54.76-.71.32-.17.69-.25,1.1-.25.59,0,1.08.18,1.48.55s.6.88.6,1.54v7.6h4.09v-7.6c0-.45.09-.82.28-1.12.19-.3.44-.54.76-.71.32-.17.69-.25,1.1-.25.59,0,1.08.18,1.48.55.4.37.6.88.6,1.54v7.6h4.09v-8.05c0-1.09-.23-2.02-.68-2.79-.46-.78-1.07-1.37-1.85-1.79Z"/>
          <path d="M185.41,48.49c-.54-1.02-1.29-1.82-2.25-2.41-.95-.59-2.05-.88-3.28-.88-.87,0-1.68.18-2.41.53-.36.18-.69.39-.99.63v-.9h-4.09v18.48h4.04v-6.37c.31.25.66.47,1.04.65.73.34,1.53.51,2.41.51,1.23,0,2.32-.29,3.28-.88.95-.59,1.7-1.39,2.25-2.41.54-1.02.82-2.18.82-3.48s-.27-2.46-.82-3.48ZM181.7,53.54c-.25.46-.59.83-1.03,1.1-.44.27-.95.4-1.54.4-.55,0-1.05-.13-1.5-.4-.45-.27-.79-.63-1.03-1.1-.24-.46-.36-.99-.36-1.58s.12-1.14.37-1.6c.25-.46.59-.82,1.03-1.08.44-.26.94-.39,1.51-.39s1.07.13,1.51.39c.44.26.78.62,1.03,1.08.25.46.37,1,.37,1.6s-.12,1.11-.37,1.58Z"/>
        </g>
        <path class="cls-1" d="M56.78,31.5h-14.4c-1.99,0-3.6,1.61-3.6,3.6s1.61,3.6,3.6,3.6h14.4c1.99,0,3.6,1.61,3.6,3.6s-1.61,3.6-3.6,3.6h0s0,0,0,0h-14.4c-1.99,0-3.6,1.61-3.6,3.6v14.4c0,1.99,1.61,3.6,3.6,3.6s3.6-1.61,3.6-3.6v-10.8h10.8c5.96,0,10.8-4.84,10.8-10.8s-4.84-10.8-10.8-10.8Z"/>
      </g>
    </g>
  </g>
</svg>